<svg width="80" height="80" viewBox="0 0 80 80" fill="none" xmlns="http://www.w3.org/2000/svg">
<g clip-path="url(#clip0_20120_772)">
<path d="M9.08765 23.5303L16.522 37.6474L24.0155 23.5303H9.08765Z" fill="#FFE68D"/>
<path d="M24.0165 56.4701L16.509 42.353L8.96094 56.4701H24.0165Z" fill="#FFE68D"/>
<path d="M47.5023 18.8243L40.0003 0.00146484L32.4976 18.8243H47.5023Z" fill="#FFE68D"/>
<path d="M55.9846 23.5303L63.4157 37.6474L70.3409 23.5303H55.9846Z" fill="#FFE68D"/>
<path d="M32.4983 61.1758L40.0004 79.9986L47.5026 61.1758H32.4983Z" fill="#FFE68D"/>
<path d="M41.3787 47.0585L47.059 41.3783V38.6217L41.3787 32.9414H38.6221L32.9419 38.6217V41.3783L38.6221 47.0585H41.3787Z" fill="#FFE68D"/>
<path d="M63.492 42.353L55.9851 56.4701H71.0399L63.492 42.353Z" fill="#FFE68D"/>
<path d="M45.2006 79.6613C57.5313 78.0711 67.8403 70.9271 73.9487 61.1758H53.0496C44.1326 82.1768 45.3077 79.4089 45.2006 79.6613Z" fill="#FFE68D"/>
<path d="M26.952 61.1758H6.052C12.1542 70.917 22.457 78.0694 34.8002 79.6613C34.7001 79.4256 35.8756 82.1943 26.952 61.1758Z" fill="#FFE68D"/>
<path d="M73.9485 18.8244C67.851 9.09049 57.5515 1.93077 45.2 0.337891L53.0486 18.8244H73.9485Z" fill="#FFE68D"/>
<path d="M34.8006 0.337891C22.4682 1.92826 12.1591 9.07559 6.05225 18.8244H26.9512L34.8006 0.337891Z" fill="#FFE68D"/>
<path d="M76.1677 22.8696L74.4943 25.7473L67.5349 39.9341L75.113 54.1076L76.5234 56.3563C81.194 45.9377 81.2396 33.5592 76.1677 22.8696Z" fill="#FFE68D"/>
<path d="M29.5625 56.4702H50.4382C60.6055 37.8147 59.2493 40.3034 59.3747 40.0733C59.2512 39.8449 60.5969 42.3357 50.4382 23.5303H29.5619C19.3673 42.2677 20.718 39.785 20.5941 40.0129C20.7159 40.2368 19.3756 37.7769 29.5625 56.4702ZM28.2361 36.6727L36.673 28.2358H43.3278L51.7646 36.6727V43.3275L43.3278 51.7643H36.673L28.2361 43.3275V36.6727Z" fill="#FFE68D"/>
<path d="M5.00018 25.8674L3.53985 23.5078C-1.16271 33.8916 -1.17557 45.9775 3.47742 56.3566L4.88787 54.108L12.4371 39.9889L5.00018 25.8674Z" fill="#FFE68D"/>
</g>
<defs>
<clipPath id="clip0_20120_772">
<rect width="80" height="80" fill="white"/>
</clipPath>
</defs>
</svg>
