<svg width="80" height="80" viewBox="0 0 80 80" fill="none" xmlns="http://www.w3.org/2000/svg">
<path d="M38.5706 18.6253V15.7656C35.3395 15.951 32.1787 16.785 29.2766 18.2178L30.5549 20.773C33.0596 19.537 35.7835 18.8072 38.5706 18.6253Z" fill="#FFE68D"/>
<path d="M26.7832 60.3726L28.0701 57.8103C25.7493 56.2502 23.7535 54.2544 22.1934 51.9336L19.6311 53.2205C21.4909 56.0767 23.927 58.5128 26.7832 60.3726Z" fill="#FFE68D"/>
<path d="M50.722 18.2178C47.8199 16.785 44.6592 15.951 41.428 15.7656V18.6253C44.212 18.8074 46.9328 19.5362 49.4351 20.7701L50.722 18.2178Z" fill="#FFE68D"/>
<path d="M38.5658 12.9058V0C32.8881 0.195815 27.3182 1.60583 22.2312 4.13512L27.9963 15.664C31.2939 14.0317 34.8911 13.093 38.5658 12.9058ZM26.4693 6.95335L27.7661 4.40393C28.7278 4.95746 29.537 5.7411 30.1211 6.68454L32.4889 6.09258C32.4787 5.24163 32.6518 4.39844 32.9965 3.62038L34.2762 4.2538L35.5631 4.87435C35.3028 5.59059 35.274 6.3705 35.4807 7.10399C35.6875 7.83748 36.1195 8.4875 36.7156 8.96229L34.6938 10.9841C34.0667 10.3686 33.5459 9.65351 33.1524 8.86792L31.2006 9.3555C31.3449 10.0284 31.4172 10.7148 31.4165 11.403H28.5568C28.6365 10.5427 28.485 9.67661 28.118 8.89436C27.7511 8.11212 27.1819 7.44204 26.4693 6.95335Z" fill="#FFE68D"/>
<path d="M15.7639 41.4302C15.9493 44.6613 16.7833 47.8221 18.2161 50.7242L20.7712 49.4459C19.5374 46.9436 18.8086 44.2228 18.6265 41.4388L15.7639 41.4302Z" fill="#FFE68D"/>
<path d="M12.9058 41.4302H0C0.195815 47.1079 1.60583 52.6778 4.13512 57.7648L15.664 51.9996C14.0317 48.7021 13.093 45.1048 12.9058 41.4302ZM8.96229 52.45L5.68365 49.1714V51.4391H2.82395V45.7197C2.82395 45.3405 2.97459 44.9768 3.24274 44.7087C3.51089 44.4405 3.87458 44.2899 4.2538 44.2899H9.97319V47.1496H7.70545L10.9841 50.4282L8.96229 52.45Z" fill="#FFE68D"/>
<path d="M15.664 28.001L4.13512 22.2358C1.60583 27.3228 0.195815 32.8927 0 38.5704H12.9058C13.093 34.8958 14.0317 31.2985 15.664 28.001ZM6.46005 30.4732C6.74602 31.0022 8.58052 31.4169 9.97605 31.4212C10.3553 31.4164 10.7208 31.5625 10.9923 31.8273C11.2638 32.0921 11.419 32.4539 11.4238 32.8332C11.4285 33.2124 11.2824 33.5779 11.0176 33.8494C10.7528 34.1209 10.391 34.2761 10.0118 34.2809H9.97319C6.73744 34.2809 5.75085 35.2675 5.68365 35.7908L2.82395 35.7107C2.86807 35.1022 3.05577 34.5129 3.37166 33.9909C3.68756 33.469 4.12266 33.0293 4.64129 32.708C4.3571 32.4562 4.11903 32.1567 3.9378 31.823C3.63113 31.1651 3.52049 30.4327 3.61913 29.7136C3.71777 28.9944 4.02151 28.319 4.49401 27.7679C4.84104 27.0937 5.36818 26.5288 6.01687 26.136C6.66556 25.7433 7.41042 25.538 8.16872 25.5431C10.731 25.7018 12.3782 28.7431 12.6828 29.3522L10.1233 30.6305C9.67578 29.7454 8.6563 28.4371 7.98999 28.3971C7.674 28.3828 7.28508 28.7374 6.87328 29.3551C6.48722 29.9327 6.38856 30.3402 6.46005 30.4732Z" fill="#FFE68D"/>
<path d="M25.5068 17.0622L19.7259 5.49902C13.8604 8.96214 8.96776 13.8548 5.50464 19.7203L17.0678 25.5012C19.2252 22.1012 22.1068 19.2196 25.5068 17.0622ZM14.2667 21.4104H11.407V17.1208C11.407 16.7416 11.5577 16.3779 11.8258 16.1098C12.094 15.8416 12.4577 15.691 12.8369 15.691H15.6966V12.8313C15.6966 12.4521 15.8472 12.0884 16.1154 11.8202C16.3835 11.5521 16.7472 11.4014 17.1264 11.4014H21.416V14.2611H18.5563V17.1208C18.5563 17.5 18.4056 17.8637 18.1375 18.1319C17.8693 18.4 17.5057 18.5507 17.1264 18.5507H14.2667V21.4104Z" fill="#FFE68D"/>
<path d="M28.0694 22.1907L26.7826 19.6284C23.9237 21.4893 21.4856 23.9274 19.6248 26.7862L22.187 28.0731C23.7482 25.7497 25.7461 23.7519 28.0694 22.1907Z" fill="#FFE68D"/>
<path d="M64.3359 51.9996L75.8648 57.7648C78.3941 52.6778 79.8041 47.1079 79.9999 41.4302H67.0941C66.9069 45.1048 65.9682 48.7021 64.3359 51.9996ZM74.3449 45.4395L77.1474 46L75.7175 53.1492L72.915 52.583L74.3449 45.4395ZM68.6398 45.3723L71.4137 46.0672L69.9838 51.7866L67.2099 51.0917L68.6398 45.3723Z" fill="#FFE68D"/>
<path d="M64.3051 18.5526C65.0948 18.5526 65.7349 17.9124 65.7349 17.1227C65.7349 16.333 65.0948 15.6929 64.3051 15.6929C63.5154 15.6929 62.8752 16.333 62.8752 17.1227C62.8752 17.9124 63.5154 18.5526 64.3051 18.5526Z" fill="#FFE68D"/>
<path d="M62.9343 25.5012L74.4975 19.7203C71.0344 13.8548 66.1418 8.96214 60.2762 5.49902L54.4954 17.0622C57.8953 19.2196 60.7769 22.1012 62.9343 25.5012ZM64.3055 12.8313C65.1539 12.8313 65.9833 13.0829 66.6887 13.5542C67.3941 14.0255 67.9439 14.6955 68.2686 15.4793C68.5932 16.2631 68.6782 17.1256 68.5127 17.9577C68.3472 18.7898 67.9386 19.5541 67.3387 20.154C66.7388 20.7539 65.9745 21.1624 65.1424 21.3279C64.3103 21.4935 63.4478 21.4085 62.664 21.0838C61.8802 20.7592 61.2103 20.2094 60.7389 19.504C60.2676 18.7986 60.016 17.9692 60.016 17.1208C60.016 15.9832 60.4679 14.8921 61.2724 14.0877C62.0768 13.2832 63.1679 12.8313 64.3055 12.8313Z" fill="#FFE68D"/>
<path d="M64.2381 41.4302H61.3784C61.1963 44.2142 60.4675 46.935 59.2336 49.4373L61.7888 50.7156C63.2195 47.816 64.0524 44.6582 64.2381 41.4302Z" fill="#FFE68D"/>
<path d="M67.0941 38.5704H79.9999C79.8041 32.8927 78.3941 27.3228 75.8648 22.2358L64.3359 28.001C65.9682 31.2985 66.9069 34.8958 67.0941 38.5704ZM69.9838 29.6439L70.3342 31.0451L73.3154 30.4489L72.9293 28.9089L75.7032 28.214L77.1331 33.9334L74.3592 34.6283L74.0089 33.2271L71.0276 33.8233L71.4137 35.3633L68.6398 36.0582L67.2099 30.3388L69.9838 29.6439Z" fill="#FFE68D"/>
<path d="M57.7626 4.13512C52.6756 1.60583 47.1057 0.195815 41.428 0V12.9058C45.1026 13.093 48.6999 14.0317 51.9974 15.664L57.7626 4.13512ZM47.9409 11.1628C47.7256 11.3065 47.4753 11.389 47.2167 11.4016C46.9582 11.4141 46.7011 11.3563 46.4728 11.2341C46.2446 11.112 46.0538 10.9302 45.9207 10.7081C45.7877 10.4861 45.7175 10.2321 45.7175 9.97319V6.56729L43.6485 5.54066L44.9268 2.98123L47.7865 4.41108C48.0231 4.52931 48.2223 4.71085 48.3619 4.93551C48.5015 5.16017 48.576 5.41915 48.5772 5.68365V7.3008L50.6433 5.92386C50.8786 5.76764 51.1545 5.68409 51.4369 5.68365H54.2966V8.54334H51.8659L47.9409 11.1628Z" fill="#FFE68D"/>
<path d="M53.2173 19.6284L51.9304 22.1907C54.2512 23.7508 56.247 25.7466 57.8071 28.0674L60.3694 26.7805C58.5096 23.9243 56.0735 21.4882 53.2173 19.6284Z" fill="#FFE68D"/>
<path d="M61.7785 29.2769L59.2234 30.5551C60.4593 33.0599 61.1891 35.7837 61.371 38.5709H64.2307C64.0453 35.3397 63.2113 32.1789 61.7785 29.2769Z" fill="#FFE68D"/>
<path d="M51.9336 57.8101L53.2205 60.3724C56.0793 58.5116 58.5174 56.0735 60.3783 53.2146L57.816 51.9277C56.2548 54.2511 54.257 56.2489 51.9336 57.8101Z" fill="#FFE68D"/>
<path d="M15.7639 38.5709H18.6236C18.8057 35.7869 19.5345 33.066 20.7684 30.5637L18.2161 29.2769C16.7833 32.1789 15.9493 35.3397 15.7639 38.5709Z" fill="#FFE68D"/>
<path d="M44.5757 48.6073L49.1369 49.5181L47.2567 44.8211C47.1304 44.5056 47.1207 44.1555 47.2292 43.8335C47.3376 43.5115 47.5572 43.2386 47.8486 43.0638L52.9503 39.9996L47.8429 36.9355C47.5515 36.7607 47.3319 36.4878 47.2234 36.1658C47.115 35.8438 47.1247 35.4937 47.2509 35.1782L49.1312 30.4811L44.57 31.392C44.2811 31.4497 43.9814 31.4169 43.7119 31.2979C43.4424 31.1789 43.2162 30.9795 43.0643 30.7271L40.0002 25.6211L36.936 30.7271C36.7841 30.9795 36.558 31.1789 36.2885 31.2979C36.019 31.4169 35.7193 31.4497 35.4304 31.392L30.8692 30.4811L32.7494 35.1782C32.8756 35.4937 32.8854 35.8438 32.7769 36.1658C32.6684 36.4878 32.4488 36.7607 32.1575 36.9355L27.05 39.9996L32.1575 43.0638C32.4488 43.2386 32.6684 43.5115 32.7769 43.8335C32.8854 44.1555 32.8756 44.5056 32.7494 44.8211L30.8692 49.5181L35.4304 48.6073C35.5225 48.588 35.6165 48.5784 35.7106 48.5787C35.9574 48.5788 36.1999 48.6427 36.4146 48.7642C36.6293 48.8857 36.809 49.0607 36.936 49.2722L40.0002 54.3782L43.0643 49.2722C43.2166 49.0187 43.4437 48.8186 43.7144 48.6996C43.985 48.5805 44.286 48.5483 44.5757 48.6073ZM32.8509 39.9996C32.8509 38.5857 33.2702 37.2034 34.0558 36.0277C34.8414 34.8521 35.9579 33.9357 37.2643 33.3946C38.5706 32.8535 40.0081 32.7119 41.3949 32.9878C42.7817 33.2636 44.0556 33.9445 45.0555 34.9444C46.0553 35.9442 46.7362 37.2181 47.0121 38.6049C47.2879 39.9917 47.1463 41.4292 46.6052 42.7355C46.0641 44.0419 45.1478 45.1585 43.9721 45.944C42.7964 46.7296 41.4142 47.1489 40.0002 47.1489C38.1048 47.1466 36.2877 46.3927 34.9474 45.0524C33.6072 43.7122 32.8532 41.895 32.8509 39.9996Z" fill="#FFE68D"/>
<path d="M54.4954 62.9355L60.2762 74.4987C66.1418 71.0356 71.0344 66.143 74.4975 60.2775L62.9343 54.4966C60.7769 57.8965 57.8953 60.7781 54.4954 62.9355ZM65.3165 57.5765L69.606 61.866C69.8741 62.1342 70.0246 62.4978 70.0246 62.8769C70.0246 63.2561 69.8741 63.6197 69.606 63.8878L65.3165 68.1774C65.0484 68.4455 64.6847 68.5962 64.3055 68.5963C64.2579 68.5991 64.2102 68.5991 64.1626 68.5963C63.9522 68.5754 63.7491 68.5082 63.5679 68.3994C63.3867 68.2906 63.2318 68.143 63.1145 67.9672L61.2242 65.1218L59.5971 66.7475L57.5753 64.7257L60.4349 61.866C60.5845 61.7164 60.7654 61.6019 60.9645 61.5307C61.1637 61.4594 61.3761 61.4333 61.5866 61.454C61.7971 61.4748 62.0004 61.5421 62.1817 61.6509C62.3631 61.7597 62.5181 61.9074 62.6355 62.0834L64.5272 64.9216L66.5733 62.8769L63.2946 59.5983L65.3165 57.5765Z" fill="#FFE68D"/>
<path d="M39.9968 44.291C42.3659 44.291 44.2864 42.3705 44.2864 40.0015C44.2864 37.6324 42.3659 35.7119 39.9968 35.7119C37.6278 35.7119 35.7073 37.6324 35.7073 40.0015C35.7073 42.3705 37.6278 44.291 39.9968 44.291Z" fill="#FFE68D"/>
<path d="M58.5855 39.9997C58.5855 36.3233 57.4953 32.7295 55.4528 29.6727C53.4104 26.6159 50.5073 24.2334 47.1108 22.8266C43.7143 21.4197 39.9768 21.0516 36.3711 21.7688C32.7654 22.486 29.4533 24.2564 26.8537 26.8559C24.2542 29.4555 22.4838 32.7676 21.7666 36.3733C21.0494 39.979 21.4175 43.7165 22.8244 47.113C24.2312 50.5095 26.6137 53.4126 29.6705 55.455C32.7273 57.4975 36.3211 58.5877 39.9975 58.5877C39.7507 58.5876 39.5082 58.5237 39.2935 58.4022C39.0788 58.2807 38.8991 58.1057 38.7721 57.8942L35.0001 51.6029L28.8446 52.8397C28.592 52.8903 28.3304 52.8718 28.0875 52.786C27.8445 52.7002 27.6293 52.5504 27.4645 52.3523C27.2997 52.1543 27.1914 51.9154 27.1512 51.6609C27.111 51.4064 27.1403 51.1457 27.2361 50.9065L29.6439 44.8883L23.5385 41.225C23.3271 41.0979 23.1521 40.9183 23.0307 40.7035C22.9093 40.4888 22.8455 40.2463 22.8455 39.9997C22.8455 39.753 22.9093 39.5105 23.0307 39.2958C23.1521 39.081 23.3271 38.9014 23.5385 38.7743L29.6439 35.111L27.2361 29.0928C27.1402 28.8534 27.1108 28.5925 27.1511 28.3377C27.1913 28.083 27.2998 27.8439 27.4648 27.6458C27.6292 27.4473 27.8443 27.2972 28.0874 27.2115C28.3304 27.1259 28.5922 27.108 28.8446 27.1596L35.0059 28.3907L38.7778 22.0994C38.9142 21.9003 39.0971 21.7375 39.3106 21.625C39.5241 21.5125 39.7618 21.4537 40.0032 21.4537C40.2445 21.4537 40.4822 21.5125 40.6957 21.625C40.9092 21.7375 41.0921 21.9003 41.2286 22.0994L45.0005 28.3907L51.1503 27.1596C51.4029 27.109 51.6645 27.1275 51.9075 27.2133C52.1504 27.2991 52.3657 27.449 52.5304 27.647C52.6952 27.8451 52.8035 28.084 52.8437 28.3384C52.8839 28.5929 52.8546 28.8536 52.7589 29.0928L50.351 35.111L56.4564 38.7743C56.6679 38.9014 56.8428 39.081 56.9642 39.2958C57.0856 39.5105 57.1495 39.753 57.1495 39.9997C57.1495 40.2463 57.0856 40.4888 56.9642 40.7035C56.8428 40.9183 56.6679 41.0979 56.4564 41.225L50.351 44.8883L52.7589 50.9065C52.8546 51.1457 52.8839 51.4064 52.8437 51.6609C52.8035 51.9154 52.6952 52.1543 52.5304 52.3523C52.3657 52.5504 52.1504 52.7002 51.9075 52.786C51.6645 52.8718 51.4029 52.8903 51.1503 52.8397L44.9891 51.6086L41.2171 57.8999C41.0899 58.1095 40.9108 58.2829 40.6972 58.4033C40.4836 58.5238 40.2427 58.5872 39.9975 58.5877C44.9256 58.582 49.6502 56.6218 53.1349 53.1371C56.6196 49.6524 58.5798 44.9278 58.5855 39.9997Z" fill="#FFE68D"/>
<path d="M22.2312 75.8648C27.3182 78.3941 32.8881 79.8041 38.5658 79.9999V67.0941C34.8911 66.9069 31.2939 65.9682 27.9963 64.3359L22.2312 75.8648ZM35.2543 77.1031L26.6752 74.2434L27.5788 71.5266L36.1579 74.3863L35.2543 77.1031ZM30.3327 67.2099L36.0521 68.6398L35.3601 71.4137L29.6407 69.9838L30.3327 67.2099Z" fill="#FFE68D"/>
<path d="M41.428 67.0941V79.9999C47.1057 79.8041 52.6756 78.3941 57.7626 75.8648L51.9974 64.3359C48.6999 65.9682 45.1026 66.9069 41.428 67.0941ZM54.1651 74.914C54.0755 75.1084 53.9435 75.2803 53.7787 75.4169C53.6139 75.5535 53.4205 75.6514 53.2128 75.7032L47.4934 77.1331C47.3803 77.1619 47.2641 77.1763 47.1474 77.176C46.8289 77.1756 46.5196 77.069 46.2686 76.8729C46.0176 76.6768 45.8392 76.4025 45.7618 76.0936L44.332 70.3742L47.1059 69.6793L48.1897 74.0117L50.7921 73.3611L48.7202 69.236L51.2796 67.9577L54.1393 73.6771C54.2359 73.8682 54.2884 74.0785 54.2929 74.2926C54.2973 74.5067 54.2537 74.719 54.1651 74.914Z" fill="#FFE68D"/>
<path d="M41.428 64.2354C44.6592 64.0499 47.8199 63.216 50.722 61.7832L49.4351 59.228C46.9328 60.4619 44.212 61.1907 41.428 61.3728V64.2354Z" fill="#FFE68D"/>
<path d="M29.2766 61.7813C32.1787 63.2141 35.3395 64.0481 38.5706 64.2335V61.3738C35.7866 61.1917 33.0658 60.4629 30.5635 59.229L29.2766 61.7813Z" fill="#FFE68D"/>
<path d="M17.0678 54.4966L5.50464 60.2775C8.96776 66.143 13.8604 71.0356 19.7259 74.4987L25.5068 62.9355C22.1068 60.7781 19.2252 57.8965 17.0678 54.4966ZM18.1373 69.6072L16.1155 67.5854L19.1726 64.5284L17.5225 63.4303L15.4564 66.5302L13.0771 64.9431L15.2862 61.6287L14.2667 60.6092L10.9881 63.8878L8.9663 61.866L13.2558 57.5765C13.524 57.3084 13.8876 57.1578 14.2667 57.1578C14.6459 57.1578 15.0095 57.3084 15.2776 57.5765L18.0373 60.3361L22.2096 63.1171C22.3855 63.2345 22.5332 63.3895 22.642 63.5709C22.7508 63.7522 22.8181 63.9555 22.8389 64.166C22.8596 64.3765 22.8335 64.5889 22.7622 64.7881C22.691 64.9873 22.5765 65.1681 22.4269 65.3177L18.1373 69.6072Z" fill="#FFE68D"/>
</svg>
