<svg width="80" height="80" viewBox="0 0 80 80" fill="none" xmlns="http://www.w3.org/2000/svg">
<g clip-path="url(#clip0_20120_743)">
<path d="M50.9792 61.2428L45.8445 32.1611L40.9724 4.55614C40.4398 1.55788 37.5808 -0.442392 34.5819 0.0840908L4.65793 5.3703C1.66027 5.90289 -0.340604 8.76189 0.185878 11.7608L5.09951 39.5727L10.1927 68.4481C10.7253 71.4457 13.5843 73.4466 16.5832 72.9201L46.5072 67.6333C49.5048 67.1007 51.5057 64.2417 50.9792 61.2428ZM30.4825 4.66608L33.022 4.21106C35.1805 3.83727 37.2369 5.27196 37.6321 7.42675L38.0737 9.98038C38.1378 10.3407 38.056 10.7121 37.8465 11.0126C37.637 11.3131 37.3163 11.5177 36.956 11.5812C36.8784 11.5965 36.7996 11.6056 36.7208 11.6093C36.0502 11.6032 35.4773 11.1231 35.3546 10.4635L34.913 7.90987C34.8586 7.59533 34.6797 7.31681 34.4158 7.13725C34.1526 6.94791 33.824 6.8734 33.5051 6.9302L30.9515 7.38522C30.2125 7.49027 29.5242 6.98944 29.3971 6.25347C29.2701 5.5181 29.7508 4.81511 30.4825 4.66608ZM19.0812 14.563L20.351 14.3419C20.7126 14.2729 21.0864 14.3523 21.3881 14.563C21.6892 14.7737 21.8932 15.0968 21.9525 15.4602C22.0166 15.8205 21.9347 16.1919 21.7253 16.4924C21.5158 16.7923 21.1951 16.9969 20.8341 17.061L19.5644 17.2821C19.4825 17.2931 19.3994 17.298 19.3164 17.2956C18.614 17.2766 18.0387 16.7336 17.9782 16.0337C17.9183 15.3344 18.3929 14.701 19.0812 14.563ZM18.8052 19.9597C18.8699 20.3201 18.7881 20.6914 18.578 20.9919C18.3685 21.2918 18.0478 21.4964 17.6875 21.5606C17.605 21.5722 17.5219 21.5764 17.4389 21.5746C16.7701 21.5709 16.2002 21.0878 16.0866 20.4288L15.8655 19.159C15.7794 18.6735 15.9584 18.1781 16.3358 17.8605C16.7133 17.5429 17.2318 17.4513 17.6954 17.6193C18.1596 17.7872 18.4986 18.1903 18.5847 18.6759L18.8052 19.9597ZM15.8655 11.1811C16.6162 11.0566 17.3259 11.5629 17.4529 12.3129L17.6875 13.5827C17.8108 14.3358 17.3069 15.0491 16.5557 15.1841C16.4781 15.1957 16.3993 15.2006 16.3212 15.1976C15.6542 15.2018 15.0819 14.723 14.9683 14.0658L14.7338 12.782C14.6098 12.0289 15.1143 11.3161 15.8655 11.1811ZM12.7048 15.6807L13.9886 15.4602C14.7271 15.3545 15.416 15.856 15.543 16.5919C15.6701 17.3273 15.1888 18.0303 14.4577 18.1787L13.1879 18.3998C13.1104 18.4151 13.0322 18.4243 12.9534 18.4273C12.215 18.4621 11.5804 17.9094 11.5138 17.1728C11.4472 16.4368 11.9725 15.779 12.7048 15.6807ZM7.48762 15.3771C7.55175 15.7375 7.46991 16.1088 7.26041 16.4093C7.05031 16.7098 6.73027 16.9144 6.3693 16.978C6.28746 16.9944 6.20439 17.0036 6.12072 17.0061C5.45193 17.0024 4.88208 16.5193 4.76848 15.8602L4.31284 13.3066C3.93966 11.1512 5.37619 9.09843 7.52854 8.71059L10.0822 8.269C10.4431 8.20121 10.8163 8.28183 11.1174 8.49193C11.4179 8.70265 11.6219 9.02452 11.6836 9.38671C11.7477 9.74767 11.6659 10.119 11.4564 10.4189C11.2463 10.7194 10.9262 10.924 10.5653 10.9881L8.01166 11.4297C7.69772 11.4835 7.4186 11.663 7.23904 11.9263C7.04848 12.1895 6.97396 12.5181 7.03199 12.8376L7.48762 15.3771ZM20.6827 68.3375L18.1431 68.7931C15.9871 69.1547 13.9379 67.7249 13.533 65.5768L13.0914 63.0232C13.0047 62.5376 13.1843 62.0429 13.5617 61.7253C13.9392 61.4077 14.4577 61.3155 14.9213 61.4835C15.3849 61.652 15.7238 62.0545 15.8106 62.5401L16.2522 65.0937C16.378 65.7485 17.0022 66.1833 17.66 66.074L20.213 65.6184C20.952 65.5133 21.641 66.0147 21.768 66.7501C21.895 67.4855 21.4138 68.1885 20.6827 68.3375ZM29.3232 51.9677C29.0667 52.3384 28.6416 52.5558 28.1908 52.5473C27.8989 52.5473 27.6143 52.4557 27.3767 52.2853C26.521 51.6916 25.2928 49.8831 26.1759 46.9435C26.4098 46.3132 26.4245 45.623 26.2175 44.9835C25.9689 44.9976 25.7069 45.011 25.4442 45.011C25.0332 45.0135 24.6221 44.9811 24.216 44.9145C23.9258 46.0371 23.3053 47.0467 22.4356 47.8132C21.1383 49.0415 21.4278 49.8972 21.4419 49.9387C21.5909 50.2679 21.6025 50.6429 21.4724 50.9801C21.3429 51.3178 21.0833 51.589 20.7517 51.7331C20.5776 51.8254 20.3828 51.873 20.1855 51.8712C19.6376 51.8638 19.1435 51.5414 18.9157 51.043C18.4601 50.0902 18.3086 47.9232 20.5446 45.8117C21.0742 45.386 21.4321 44.7832 21.5524 44.1138C21.0901 43.8982 20.6466 43.6447 20.227 43.3546C20.0963 43.2667 19.9717 43.1702 19.8545 43.0651C19.047 43.8958 18.0081 44.4632 16.8733 44.6934C15.1338 45.1075 14.9543 45.9913 14.9408 46.0322C14.8755 46.7358 14.2806 47.2703 13.5745 47.2611H13.4499C12.6847 47.1768 12.1264 46.4964 12.1942 45.7287C12.2907 44.68 13.2429 42.72 16.2241 42.0158C16.8941 41.912 17.5048 41.5748 17.9495 41.0636C17.5629 40.52 17.2428 39.9313 16.9973 39.3107C15.8808 39.6143 14.6996 39.5807 13.602 39.2142C11.9041 38.7036 11.297 39.3797 11.2695 39.4072C11.0166 39.7657 10.6038 39.9771 10.1652 39.9734C9.87939 39.9716 9.60088 39.8854 9.36451 39.7248C9.09333 39.5263 8.90216 39.2374 8.82642 38.9107C8.74092 38.5186 8.82093 38.1093 9.04691 37.7783C9.64058 36.9092 11.4485 35.6944 14.3887 36.5641C15.0172 36.8047 15.7104 36.8194 16.3487 36.6056C16.2955 35.9423 16.3187 35.2754 16.4177 34.6176C15.2987 34.3189 14.2916 33.7002 13.519 32.8372C12.3041 31.5399 11.435 31.816 11.4075 31.8294C11.0783 31.9827 10.7015 31.9974 10.3613 31.8703C10.0217 31.7433 9.74685 31.4849 9.59905 31.1533C9.28023 30.4521 9.58866 29.6251 10.2892 29.3039C11.2414 28.8623 13.4084 28.7102 15.5205 30.9328C15.9394 31.4636 16.5386 31.8221 17.2043 31.94C17.4297 31.4807 17.6881 31.0379 17.9776 30.6152C18.0612 30.4894 18.1535 30.3697 18.253 30.2561C17.4328 29.4376 16.8715 28.3963 16.6382 27.2609C16.2241 25.536 15.3409 25.3424 15.2994 25.3424C14.9378 25.3064 14.6061 25.1268 14.3777 24.844C14.1493 24.5613 14.0442 24.1991 14.0851 23.8381C14.1639 23.0771 14.8419 22.5225 15.6035 22.5958C16.6522 22.6789 18.6122 23.6311 19.3298 26.6263C19.4275 27.2908 19.7604 27.8979 20.2686 28.3376C20.8158 27.9602 21.404 27.6456 22.0215 27.3989C21.7179 26.2824 21.7515 25.1012 22.118 24.0036C22.6286 22.2923 21.9525 21.6852 21.925 21.6571C21.6287 21.4476 21.429 21.1275 21.3722 20.769C21.3148 20.4105 21.4046 20.044 21.6214 19.7527C22.0764 19.137 22.9395 18.9959 23.5673 19.4351C24.423 20.0422 25.6378 21.8507 24.7681 24.7903C24.5195 25.4176 24.5049 26.1132 24.7266 26.7503C25.3941 26.6971 26.066 26.7203 26.7281 26.8193C27.0127 25.6942 27.6338 24.6828 28.5084 23.9206C29.7923 22.6923 29.5162 21.8366 29.5022 21.7951C29.3513 21.4659 29.3379 21.0903 29.4649 20.7507C29.592 20.4117 29.8485 20.1369 30.1789 19.9872C30.8843 19.6782 31.707 19.9915 32.0283 20.6908C32.4699 21.6296 32.6354 23.8106 30.3994 25.9221C29.876 26.3478 29.5193 26.9439 29.3922 27.6059C29.9951 27.8912 30.5649 28.243 31.0896 28.6552C31.897 27.8246 32.9359 27.2566 34.0713 27.0263C35.7961 26.6263 35.9898 25.7431 36.0032 25.7016C36.0337 25.3388 36.209 25.0041 36.4894 24.7726C36.7703 24.5417 37.1325 24.4336 37.4941 24.4727C38.2569 24.5582 38.8103 25.2404 38.7364 26.0051C38.6533 27.0404 37.7011 29.0003 34.72 29.718C34.0487 29.8181 33.4367 30.1559 32.9945 30.6702C33.372 31.2174 33.6865 31.8056 33.9333 32.4231C35.0498 32.1195 36.231 32.1531 37.3286 32.5196C39.0399 33.0167 39.647 32.3541 39.6751 32.3266C39.8828 32.0285 40.2022 31.827 40.5607 31.7677C40.9187 31.7079 41.2863 31.7946 41.5795 32.009C41.8507 32.2075 42.0419 32.4964 42.1182 32.8237C42.2031 33.2152 42.1231 33.6245 41.8971 33.9555C41.29 34.8112 39.4956 36.0394 36.5419 35.1697C35.914 34.9266 35.222 34.9071 34.5819 35.1147C34.6418 35.7866 34.6186 36.4633 34.5129 37.1297C35.6386 37.4131 36.6537 38.0287 37.4251 38.8966C38.6399 40.1939 39.509 39.9178 39.5371 39.9044C39.8657 39.7492 40.2431 39.7334 40.5833 39.861C40.9242 39.9881 41.199 40.2476 41.345 40.5805C41.654 41.2823 41.348 42.1025 40.6548 42.4299C40.223 42.6125 39.757 42.7017 39.2885 42.6925C37.7879 42.6315 36.3819 41.9462 35.4101 40.8016C34.9954 40.2653 34.3938 39.9056 33.7262 39.7938C33.5076 40.2501 33.2535 40.688 32.9671 41.1052C32.8791 41.2359 32.782 41.3605 32.6769 41.4777C33.5076 42.29 34.075 43.3339 34.3059 44.4729C34.72 46.1984 35.6031 46.3914 35.6306 46.3914C35.9922 46.4237 36.3263 46.599 36.5572 46.8794C36.788 47.1597 36.8967 47.5207 36.8589 47.8822C36.7856 48.6017 36.1748 49.1465 35.4511 49.138H35.3411C34.2918 49.0415 32.3319 48.0893 31.6142 45.1075C31.5104 44.4381 31.1726 43.8274 30.662 43.3827C30.1178 43.7693 29.5297 44.0894 28.9091 44.3349C29.2127 45.4514 29.1791 46.6326 28.812 47.7302C28.3154 49.4415 28.9781 50.0352 29.0056 50.0627C29.3055 50.2691 29.5083 50.5886 29.5681 50.9477C29.628 51.3068 29.5394 51.6751 29.3232 51.9677ZM36.5828 53.6241C36.7068 54.3772 36.2029 55.0905 35.4511 55.2249C35.3735 55.2371 35.2953 55.2414 35.2165 55.239C34.5453 55.242 33.9712 54.7558 33.8643 54.0932L33.6291 52.8234C33.5051 52.0746 34.0017 51.3636 34.7475 51.2225C35.1078 51.1578 35.4792 51.2396 35.7797 51.4497C36.0802 51.6592 36.2848 51.9799 36.3483 52.3402L36.5828 53.6241ZM33.3531 58.2201L32.0833 58.4412C32.0063 58.4565 31.9275 58.4656 31.8487 58.4687C31.1103 58.5035 30.4763 57.9502 30.4098 57.2142C30.3432 56.4782 30.8678 55.8204 31.6002 55.7221L32.884 55.501C33.623 55.3959 34.3114 55.8974 34.4384 56.6327C34.5654 57.3681 34.0848 58.0717 33.3531 58.2201ZM36.5828 61.5879C36.501 61.6038 36.4179 61.6129 36.3348 61.6154C35.6654 61.6117 35.0956 61.1292 34.982 60.4702L34.7609 59.2004C34.6937 58.8394 34.7743 58.4663 34.9844 58.1651C35.1945 57.864 35.517 57.66 35.8792 57.599C36.2396 57.5348 36.6109 57.6167 36.9114 57.8262C37.2119 58.0357 37.4165 58.3563 37.48 58.7173L37.7011 59.9871C37.7677 60.348 37.6871 60.72 37.477 61.0211C37.2669 61.3222 36.945 61.5262 36.5828 61.5879ZM38.2117 57.3369C37.51 57.318 36.934 56.7744 36.8741 56.0751C36.8143 55.3758 37.2889 54.7424 37.9772 54.6038L39.247 54.3692C39.9976 54.2361 40.7147 54.7363 40.8478 55.4875C40.9816 56.2382 40.4807 56.9552 39.7301 57.0884L38.4603 57.3229C38.3779 57.3345 38.2948 57.3388 38.2117 57.3369ZM43.6225 64.293L41.083 64.7352C41.0005 64.7511 40.9174 64.7602 40.8344 64.7627C40.1002 64.7865 39.476 64.2319 39.4137 63.5008C39.3514 62.7691 39.8724 62.1168 40.5998 62.016L43.1529 61.5745C43.4674 61.5201 43.7465 61.3405 43.9261 61.0773C44.116 60.8147 44.1912 60.4855 44.1331 60.166L43.6775 57.6264C43.5492 56.877 44.0476 56.1637 44.7958 56.0256C45.1562 55.9591 45.5287 56.0397 45.8299 56.2498C46.131 56.4599 46.335 56.7818 46.3966 57.1433L46.8523 59.697C47.0337 60.7347 46.7955 61.8023 46.1896 62.6641C45.5837 63.5265 44.6602 64.1122 43.6225 64.293Z" fill="#FFE68D"/>
<path d="M29.4886 40.8293C29.4886 40.8152 29.516 40.8018 29.5301 40.7878C29.5863 40.7334 29.6461 40.6827 29.709 40.6357C30.4542 39.9675 31.0356 39.1362 31.407 38.2066C31.4082 38.1963 31.4131 38.1865 31.421 38.1792C31.4375 38.1083 31.4607 38.0387 31.49 37.9721C31.8455 36.9772 31.9402 35.9083 31.7661 34.8663C31.7551 34.8309 31.7508 34.7931 31.7521 34.7558C31.5676 33.7053 31.1211 32.7177 30.4548 31.8852C30.3772 31.8046 30.3076 31.7166 30.2477 31.6232C29.5618 30.8689 28.7117 30.2831 27.7631 29.9112C27.7008 29.8947 27.641 29.8715 27.5836 29.8422C26.5837 29.4904 25.5106 29.3951 24.4644 29.5661C24.3966 29.582 24.3269 29.5917 24.2573 29.5942C24.2433 29.5942 24.2298 29.6076 24.2158 29.6076C23.2025 29.8049 22.254 30.2508 21.4551 30.9049L21.4142 30.9464C20.9647 31.3068 20.5695 31.7294 20.2409 32.2028C19.9557 32.6059 19.7193 33.0414 19.5367 33.5001C19.5086 33.6088 19.4713 33.7144 19.4261 33.8177C19.0908 34.7973 19.0004 35.8448 19.1641 36.8678C19.1824 36.9014 19.1873 36.9411 19.1782 36.9784C19.3638 38.0558 19.8305 39.0648 20.5304 39.9046C21.1974 40.7426 22.0732 41.39 23.07 41.7815C22.9741 41.7656 22.8776 41.7564 22.7805 41.754C22.8782 41.754 22.9759 41.768 23.07 41.7955H23.084C23.1408 41.8028 23.1964 41.8163 23.2495 41.8364C23.2911 41.8505 23.346 41.878 23.4016 41.892C24.3831 42.2408 25.4373 42.3354 26.4659 42.1681C26.4933 42.1681 26.5349 42.154 26.5758 42.154C27.6257 41.9665 28.6121 41.5207 29.447 40.8568C29.4586 40.8446 29.4727 40.8348 29.4886 40.8293Z" fill="#FFE68D"/>
<path d="M51.8489 50.2426C55.6412 47.1264 56.4584 41.6448 53.7398 37.5581C52.6111 35.8358 50.9254 34.5544 48.9636 33.9277L51.8489 50.2426Z" fill="#FFE68D"/>
<path d="M52.3731 53.2649L52.9808 56.7292C59.2876 56.2614 64.291 51.2274 64.721 44.9182C65.1509 38.6083 60.8768 32.9422 54.6921 31.6229C53.3338 31.3676 51.9418 31.3536 50.5786 31.5814C52.8128 32.4689 54.7202 34.0196 56.045 36.0254C57.8718 38.7903 58.5119 42.1734 57.8217 45.4147C57.1316 48.6561 55.1685 51.4845 52.3731 53.2649Z" fill="#FFE68D"/>
<path d="M75.5888 13.3343L46.2585 7.85513C45.63 7.73542 44.9856 7.72626 44.3535 7.82704L45.1407 12.2857C45.9225 11.8844 46.8155 11.7537 47.6803 11.9131L50.1924 12.3822C50.9431 12.5232 51.4372 13.2464 51.2967 13.997C51.1556 14.7477 50.4324 15.2424 49.6818 15.1013L47.1697 14.6322C46.8637 14.5724 46.5461 14.6383 46.2896 14.8148C46.0325 14.9914 45.8572 15.2638 45.8028 15.5704L45.7619 15.7915L48.1494 29.3316C50.4306 28.6158 52.8529 28.4741 55.2026 28.9175C62.6894 30.4921 67.9035 37.2997 67.4723 44.9386C67.0411 52.5768 61.094 58.7548 53.4771 59.4767L53.6982 60.7599C53.8729 61.742 53.8686 62.7474 53.6842 63.7277L54.8434 63.9481C55.5342 64.088 56.0088 64.725 55.9446 65.4262C55.8811 66.1274 55.2997 66.6685 54.5954 66.6813C54.5124 66.6838 54.4293 66.6789 54.3469 66.6673L53.0905 66.4327C52.9665 66.4059 52.8462 66.3643 52.732 66.3088C51.5129 68.4483 49.4021 69.9312 46.9761 70.3527L31.2 73.1408C31.9341 73.8017 32.8374 74.2457 33.8085 74.4247L63.1529 79.9039C64.5919 80.1763 66.0803 79.8636 67.2878 79.0341C68.4953 78.2047 69.3223 76.9282 69.5849 75.4874L80.0059 19.7804C80.2758 18.3396 79.9625 16.8505 79.1337 15.6418C78.3055 14.4325 77.0302 13.6025 75.5888 13.3343ZM61.124 65.1214C61.4861 65.1862 61.8074 65.3938 62.0151 65.6974C62.2227 66.0009 62.2991 66.3753 62.2282 66.7363C62.1085 67.3904 61.5399 67.8662 60.8754 67.8681C60.7917 67.8662 60.7086 67.8571 60.6268 67.8406L59.3711 67.606C58.8855 67.5175 58.4836 67.1761 58.3175 66.7113C58.152 66.2459 58.2466 65.7279 58.5661 65.3517C58.8861 64.9755 59.382 64.7983 59.8676 64.8869L61.124 65.1214ZM56.4583 61.7536C56.5169 61.24 56.8577 60.8015 57.3421 60.6188C57.8258 60.4356 58.3712 60.5388 58.7554 60.8857C59.139 61.2321 59.2971 61.7646 59.164 62.2643L58.9295 63.5206C58.8098 64.1741 58.2411 64.6499 57.5766 64.6524C57.4929 64.6499 57.4099 64.6408 57.328 64.6249C56.9671 64.5577 56.6476 64.35 56.4406 64.0465C56.2335 63.7435 56.1554 63.3704 56.2238 63.01L56.4583 61.7536ZM57.7562 69.8005C57.6304 70.4492 57.0636 70.9176 56.4033 70.9188C56.3203 70.9213 56.2372 70.9164 56.1547 70.9048C55.7938 70.8382 55.4743 70.63 55.2673 70.327C55.0602 70.0241 54.9821 69.6509 55.0505 69.2899L55.2856 68.0342C55.3436 67.5199 55.6851 67.082 56.1688 66.8988C56.6525 66.7161 57.1979 66.8188 57.5821 67.1657C57.9657 67.5126 58.1239 68.0446 57.9907 68.5448L57.7562 69.8005ZM66.3137 72.6992C65.9686 74.5566 64.3519 75.9064 62.4628 75.9149C62.2172 75.9137 61.9723 75.8905 61.7311 75.8459L59.219 75.3768C58.7334 75.2883 58.3321 74.9469 58.166 74.4821C57.9999 74.0173 58.0945 73.4987 58.4146 73.1225C58.734 72.7463 59.23 72.5691 59.7161 72.6577L62.2282 73.1274C62.8677 73.2453 63.4827 72.8269 63.6086 72.1886L64.0776 69.6765C64.1363 69.1623 64.4771 68.7244 64.9608 68.5411C65.4445 68.3585 65.9906 68.4611 66.3741 68.808C66.7583 69.1549 66.9159 69.6875 66.7827 70.1871L66.3137 72.6992ZM64.2016 20.305C64.3427 19.5538 65.0659 19.0597 65.8165 19.2008C66.5677 19.3419 67.0619 20.0644 66.9208 20.8156L66.6862 22.0714C66.561 22.72 65.9936 23.1885 65.3334 23.1897C65.246 23.1921 65.1581 23.1873 65.0714 23.1757C64.3232 23.0309 63.8309 22.3108 63.9671 21.5608L64.2016 20.305ZM62.0902 25.2187L60.8338 24.9841C60.0832 24.8431 59.5885 24.1199 59.7296 23.3693C59.8707 22.618 60.5938 22.1239 61.3444 22.265L62.6008 22.4995C63.291 22.6388 63.7655 23.2758 63.702 23.977C63.6379 24.6788 63.0564 25.2193 62.3522 25.2321C62.2649 25.2346 62.1769 25.2303 62.0902 25.2187ZM65.5129 28.3519C65.3877 28.9999 64.8209 29.4684 64.1607 29.4696C64.0728 29.4721 63.9848 29.4678 63.8981 29.4562C63.1499 29.3108 62.6576 28.5907 62.7938 27.8407L63.0283 26.585C63.1694 25.8343 63.8926 25.3396 64.6432 25.4807C65.3945 25.6218 65.8886 26.3449 65.7475 27.0956L65.5129 28.3519ZM68.6321 26.4054C68.5448 26.4078 68.4568 26.403 68.3701 26.392L67.1144 26.1568C66.3631 26.0163 65.869 25.2932 66.0101 24.5419C66.1512 23.7913 66.8737 23.2972 67.625 23.4383L68.8807 23.6728C69.6289 23.8176 70.1212 24.5377 69.985 25.2877C69.8598 25.9357 69.2924 26.4042 68.6321 26.4054ZM75.9479 21.2023L75.4782 23.7144C75.3591 24.3679 74.7905 24.8437 74.126 24.8461C74.0381 24.8443 73.9501 24.8351 73.8634 24.818C73.1152 24.6733 72.6229 23.9532 72.7591 23.2031L73.2288 20.6911C73.2868 20.3857 73.2208 20.0687 73.0443 19.8122C72.8678 19.5556 72.5966 19.3803 72.29 19.3248L69.7779 18.8557C69.0273 18.7146 68.5326 17.9915 68.6737 17.2408C68.8148 16.4896 69.5379 15.9955 70.2885 16.1365L72.8006 16.6056C73.8279 16.7974 74.7362 17.3898 75.3268 18.2516C75.9168 19.114 76.1403 20.175 75.9479 21.2023Z" fill="#FFE68D"/>
</g>
<defs>
<clipPath id="clip0_20120_743">
<rect width="80" height="80" fill="white"/>
</clipPath>
</defs>
</svg>
