<svg width="80" height="80" viewBox="0 0 80 80" fill="none" xmlns="http://www.w3.org/2000/svg">
<g clip-path="url(#clip0_20229_61)">
<path d="M1.3335 38.8878C1.48487 38.8842 1.63502 38.8555 1.77723 38.8024C2.17091 38.6944 5.21901 37.976 9.36269 41.325L10.2678 42.0623C13.3349 44.5641 15.783 46.524 19.6935 46.765C18.543 47.1935 17.3485 47.492 16.1321 47.6543C14.287 47.868 12.4975 48.4197 10.8519 49.2809C7.95888 51.0845 5.59926 53.6279 4.01722 56.6479C3.72303 57.2515 3.92323 57.9803 4.48536 58.3483C5.04689 58.7164 5.79518 58.6083 6.23097 58.0975C6.2505 58.0718 8.51064 55.6066 14.0453 56.4849L15.2044 56.6717C19.099 57.3107 22.188 57.813 25.6603 56.1041C24.8907 57.0202 24.0264 57.8521 23.0816 58.5864C21.596 59.6954 20.3252 61.0668 19.3334 62.633C17.7221 65.6396 16.9475 69.024 17.0891 72.4316C17.1355 73.0944 17.6653 73.6199 18.3282 73.6615H18.4215C19.0533 73.6566 19.5971 73.2128 19.7283 72.5946C19.7576 72.4615 20.4827 69.2785 25.7 67.2759L26.795 66.8585C30.476 65.4626 33.3959 64.3505 35.5602 61.1254C35.3515 62.3022 35.0189 63.4539 34.5684 64.5611C33.8305 66.2682 33.4118 68.0963 33.3337 69.9548C33.4478 73.3074 34.4402 76.5716 36.2109 79.4213C36.2292 79.4561 36.2573 79.4836 36.2786 79.5172L36.2988 79.5477C36.6198 80.039 37.2253 80.2606 37.7874 80.0927C38.3489 79.9249 38.7341 79.4079 38.7335 78.8214C38.7298 78.6694 38.7011 78.5199 38.6492 78.377C38.5412 78.0011 37.8057 74.9548 41.1706 70.7934L41.9067 69.8876C44.4012 66.8304 46.3787 64.4036 46.6296 60.512C47.0465 61.6473 47.3382 62.824 47.4999 64.0228C47.7136 65.8672 48.2653 67.6574 49.1265 69.3023C50.9295 72.196 53.4722 74.5556 56.4923 76.137C56.6729 76.2255 56.8713 76.2713 57.0721 76.2707C57.6287 76.2731 58.1292 75.9295 58.3258 75.4089C58.5229 74.8883 58.3752 74.2999 57.9559 73.9331C57.8546 73.8427 55.4614 71.6186 56.3293 66.1077L56.5173 64.9505C57.1563 61.0558 57.6599 57.9662 55.9497 54.4921C56.8658 55.2612 57.6977 56.1254 58.432 57.0702C59.5404 58.5589 60.9118 59.8315 62.4786 60.8251C65.2594 62.3284 68.374 63.1078 71.535 63.092C71.9665 63.092 72.232 63.0761 72.2772 63.0731C72.9388 63.023 73.4625 62.4944 73.5071 61.8334C73.548 61.1663 73.0939 60.57 72.4402 60.4333C72.3071 60.4064 69.1241 59.6783 67.1228 54.4622L66.7041 53.3678C65.307 49.6862 64.1961 46.7663 60.971 44.6038C62.1478 44.8113 63.2989 45.1433 64.4055 45.5944C66.1133 46.3305 67.9419 46.7461 69.8004 46.8212C73.1616 46.7058 76.4343 45.7098 79.2895 43.9318C79.3396 43.8994 79.3878 43.8647 79.4336 43.8262C79.444 43.8183 79.4574 43.8103 79.4684 43.8012C79.5172 43.7694 79.5642 43.7346 79.6094 43.6974C80.13 43.1768 80.13 42.3327 79.6094 41.812C79.2566 41.4635 78.7372 41.3427 78.2666 41.4995C78.2574 41.4995 78.2483 41.4995 78.2391 41.4995C77.9016 41.5972 74.8254 42.3662 70.639 38.9812L69.7333 38.2439C66.676 35.7494 64.2511 33.7743 60.3564 33.5222C61.4923 33.106 62.6703 32.8136 63.8696 32.6519C65.7147 32.4382 67.5042 31.8865 69.1498 31.0253C72.0428 29.2217 74.4025 26.679 75.9839 23.6583C76.2787 23.0547 76.0785 22.3259 75.5163 21.9579C74.9542 21.5898 74.2065 21.6979 73.7707 22.2094C73.7506 22.2344 71.488 24.6947 65.9564 23.8213L64.7973 23.6345C60.9027 22.9943 57.8137 22.4919 54.3426 24.2009C55.1117 23.2848 55.9753 22.4529 56.9201 21.7198C58.4082 20.6114 59.6808 19.24 60.675 17.6732C62.2857 14.6666 63.0609 11.2828 62.9187 7.87461C62.8729 7.21177 62.3431 6.68626 61.6803 6.64536C61.0156 6.61118 60.4235 7.06224 60.2801 7.71165C60.252 7.84532 59.5257 11.0277 54.3084 13.0303L53.2135 13.4477C49.5324 14.8436 46.6119 15.9557 44.4482 19.1814C44.6569 18.004 44.989 16.8523 45.44 15.7451C46.1749 14.038 46.5905 12.2112 46.6668 10.3545C46.5527 6.99449 45.5572 3.723 43.7799 0.868989C43.7457 0.816499 43.7084 0.765229 43.6682 0.717011L43.6468 0.687714C43.6157 0.638276 43.5809 0.590668 43.543 0.546723C43.0224 0.0260924 42.1783 0.0260924 41.6577 0.546723C41.3091 0.898896 41.1883 1.4177 41.3452 1.88767V1.92002C41.444 2.25571 42.2186 5.3209 38.8268 9.51951L38.0932 10.421C35.5987 13.4783 33.6211 15.905 33.3709 19.7972C32.954 18.662 32.6623 17.4846 32.4999 16.2865C32.2863 14.4414 31.7352 12.6518 30.8733 11.0063C29.071 8.11265 26.5282 5.75303 23.5082 4.17161C22.9113 3.87986 22.1911 4.07517 21.823 4.62754C21.4532 5.18357 21.5472 5.92698 22.044 6.37315C22.1453 6.46348 24.5385 8.6876 23.6706 14.1985L23.4826 15.3557C22.8442 19.2504 22.34 22.34 24.0508 25.8147C23.1347 25.045 22.3022 24.1808 21.5679 23.236C20.4595 21.7498 19.088 20.4796 17.5213 19.4878C14.5153 17.8758 11.1309 17.1013 7.72267 17.2454C7.06044 17.2911 6.53432 17.8209 6.49342 18.4838C6.45192 19.1503 6.90602 19.7466 7.56032 19.8839C7.69338 19.912 10.8764 20.6383 12.8777 25.8544L13.2958 26.9493C14.6935 30.6304 15.8043 33.5503 19.0294 35.7134C17.8527 35.5059 16.701 35.1738 15.595 34.7222C13.8872 33.9843 12.0586 33.5656 10.2001 33.4881C6.84438 33.6022 3.57716 34.5952 0.725593 36.3677C0.177496 36.6485 -0.107538 37.2686 0.0371151 37.8673C0.181769 38.4661 0.717658 38.8878 1.3335 38.8878ZM31.5508 28.1865L32.1789 29.2742C32.4151 29.6904 32.8564 29.948 33.3349 29.9486C33.8134 29.9498 34.2559 29.6947 34.4939 29.2797C34.7326 28.8646 34.7302 28.3538 34.4878 27.9412L33.8604 26.8529C35.3759 26.1473 37.0019 25.7085 38.6669 25.5559V26.8212C38.6669 27.5573 39.2639 28.1542 39.9999 28.1542C40.7366 28.1542 41.3336 27.5573 41.3336 26.8212V25.5559C42.9962 25.7091 44.6197 26.148 46.1334 26.8529L45.5053 27.9412C45.2636 28.3538 45.2612 28.8646 45.4998 29.2797C45.7379 29.6947 46.1804 29.9498 46.6589 29.9486C47.1374 29.948 47.5781 29.6904 47.8149 29.2742L48.4429 28.1865C49.8059 29.1521 50.9954 30.3423 51.9616 31.7052L50.8734 32.3333C50.4577 32.5695 50.2001 33.0108 50.1989 33.4893C50.1983 33.9678 50.4534 34.4103 50.8685 34.6483C51.2835 34.887 51.7938 34.8845 52.207 34.6422L53.2946 34.0142C54.0026 35.5297 54.4439 37.1557 54.599 38.8213H53.3337C52.597 38.8213 52.0001 39.4182 52.0001 40.1543C52.0001 40.891 52.597 41.4879 53.3337 41.4879H54.599C54.4451 43.1505 54.0063 44.7741 53.3013 46.2878L52.2137 45.6597C51.5765 45.2978 50.7659 45.5175 50.3997 46.1523C50.0335 46.787 50.2478 47.5988 50.8801 47.9693L51.9683 48.5973C51.0022 49.9602 49.8126 51.1498 48.4497 52.116L47.8216 51.0278C47.5848 50.6121 47.1435 50.3545 46.6656 50.3533C46.1871 50.3527 45.7446 50.6078 45.5059 51.0229C45.2679 51.4379 45.2703 51.9482 45.512 52.3614L46.1401 53.449C44.6264 54.154 43.0029 54.5928 41.3403 54.7466V53.4881C41.3403 52.7514 40.7433 52.1545 40.0067 52.1545C39.2706 52.1545 38.6736 52.7514 38.6736 53.4881V54.7533C37.0086 54.6001 35.3826 54.1613 33.8665 53.4557L34.4946 52.3681C34.8571 51.7309 34.6374 50.9203 34.0026 50.5541C33.3678 50.1879 32.5561 50.4021 32.1856 51.0345L31.5575 52.1227C30.1946 51.1565 29.0044 49.967 28.0389 48.604L29.1265 47.976C29.5428 47.7392 29.8003 47.2979 29.8009 46.8194C29.8022 46.3415 29.547 45.899 29.132 45.6603C28.717 45.4223 28.2061 45.4247 27.7935 45.6664L26.7052 46.2945C26.0003 44.7808 25.5614 43.1573 25.4082 41.4947H26.6668C27.4029 41.4947 27.9998 40.8977 27.9998 40.161C27.9998 39.425 27.4029 38.828 26.6668 38.828H25.4015C25.5541 37.163 25.993 35.537 26.6985 34.0209L27.7868 34.6489C28.1994 34.8913 28.7103 34.8931 29.1253 34.655C29.5403 34.417 29.7955 33.9745 29.7942 33.496C29.7936 33.0175 29.5361 32.5762 29.1204 32.34L28.0321 31.7119C28.9971 30.3466 30.1873 29.1546 31.5508 28.1865ZM15.6359 54.0411L14.4616 53.8506C12.7648 53.5589 11.0314 53.5546 9.33339 53.8384C10.1793 52.9644 11.1388 52.2076 12.1868 51.5893C13.5631 50.8935 15.0536 50.451 16.5868 50.2825C19.3835 50.0524 22.0196 48.8824 24.0655 46.9622C24.3291 47.5701 24.6276 48.1615 24.9602 48.7347C24.9737 48.7627 24.9737 48.7933 24.9895 48.8213C25.0231 48.8708 25.0603 48.9184 25.1 48.9635C25.7104 49.9932 26.4251 50.9563 27.2332 51.8383C23.1853 55.2654 20.4558 54.8302 15.6359 54.0411ZM25.8416 64.3676L24.7362 64.7906C23.1213 65.3845 21.6173 66.2457 20.288 67.3388C20.5822 66.159 21.0357 65.025 21.6363 63.9678C22.481 62.6782 23.5491 61.549 24.7906 60.6347C27.1001 59.0295 28.7963 56.6869 29.6001 53.9916C30.1269 54.389 30.6756 54.7564 31.2438 55.0921C31.275 55.1135 31.2945 55.1464 31.3281 55.1653C31.3616 55.1836 31.4068 55.1959 31.4452 55.2148C32.5018 55.8196 33.6193 56.3116 34.779 56.6814C32.9852 61.6454 30.4003 62.6385 25.8416 64.3676ZM39.8412 68.2025L39.0972 69.1174C37.9998 70.4388 37.1301 71.9342 36.5228 73.5412C36.1877 72.3748 36.0119 71.1682 36.0003 69.9548C36.0864 68.4136 36.4477 66.9012 37.0666 65.4876C38.2617 62.951 38.5644 60.0848 37.9254 57.3547C39.8644 57.6043 41.8316 57.5097 43.7377 57.0745C44.6667 62.2729 42.9229 64.4213 39.84 68.2025H39.8412ZM53.8867 64.5214L53.6962 65.6933C53.4051 67.3901 53.4008 69.1235 53.684 70.8215C52.8094 69.9786 52.0526 69.0209 51.4349 67.9748C50.7391 66.5978 50.2966 65.108 50.1281 63.5748C49.898 60.7787 48.728 58.1426 46.8084 56.0973C47.4047 55.8379 47.9858 55.5456 48.5498 55.2209C48.5882 55.2026 48.6297 55.1946 48.6669 55.172C48.7042 55.1495 48.72 55.1196 48.7506 55.0988C49.8016 54.4793 50.7849 53.7511 51.6839 52.9266C55.111 56.972 54.6759 59.7051 53.8855 64.5214H53.8867ZM64.2151 54.3133L64.6374 55.4186C65.2331 57.0354 66.0956 58.5406 67.1893 59.8718C66.0089 59.5757 64.8736 59.1204 63.8147 58.5198C62.5244 57.6745 61.3958 56.6058 60.4815 55.3637C58.8781 53.0523 56.5368 51.3543 53.8415 50.5492C54.2254 50.0408 54.5819 49.511 54.9084 48.9635C54.9481 48.9184 54.9847 48.8708 55.0189 48.8213C55.0347 48.7933 55.0347 48.7627 55.0482 48.7347C55.6616 47.6684 56.1596 46.5398 56.5338 45.368C61.4892 47.1703 62.4841 49.7546 64.2132 54.3133H64.2151ZM68.963 41.0583C70.2868 42.1575 71.7859 43.026 73.3972 43.6291C72.2265 43.9666 71.0156 44.143 69.7973 44.1546C68.258 44.0679 66.7462 43.7066 65.3332 43.0877C62.7966 41.892 59.9304 41.5899 57.2003 42.2307C57.4517 40.2917 57.3571 38.3233 56.9213 36.4171C62.1215 35.4839 64.2724 37.2289 68.0493 40.3118L68.963 41.0583ZM64.364 26.2676L65.5389 26.4586C67.2357 26.7485 68.9691 26.7528 70.6671 26.4702C69.8211 27.3449 68.8611 28.1017 67.8137 28.72C66.4367 29.4158 64.9469 29.8583 63.4137 30.0267C60.617 30.2562 57.9809 31.4263 55.935 33.3465C55.6713 32.7392 55.3723 32.1471 55.0402 31.5746C55.0268 31.5465 55.0268 31.516 55.0109 31.4879C54.9951 31.4599 54.9572 31.4342 54.9347 31.4025C54.3164 30.3515 53.5888 29.3682 52.7642 28.4691C56.8164 25.0438 59.5453 25.4772 64.364 26.2676ZM54.1589 15.941L55.2642 15.5187C56.8792 14.9242 58.3825 14.063 59.7119 12.9704C59.4183 14.1503 58.9648 15.2843 58.3642 16.3408C57.5189 17.6311 56.4508 18.7596 55.2093 19.6746C52.8997 21.2798 51.2042 23.6217 50.4003 26.317C49.873 25.9197 49.3243 25.5529 48.7561 25.2172C48.7255 25.1958 48.7054 25.1622 48.6724 25.1439C48.6389 25.125 48.6151 25.1281 48.587 25.1146C47.5189 24.4976 46.3879 23.9971 45.2136 23.6211C47.0147 18.6638 49.6002 17.6702 54.1589 15.941ZM40.1599 12.1062L40.9039 11.1919C42.0013 9.86986 42.8716 8.3751 43.4789 6.76805C43.8134 7.93443 43.9892 9.1411 44.0002 10.3545C43.9141 11.895 43.5528 13.4081 42.9333 14.821C41.7382 17.3577 41.4361 20.2239 42.0745 22.9546C40.136 22.7043 38.1683 22.7996 36.2627 23.2347C35.3332 18.0358 37.0776 15.8879 40.1599 12.1062ZM26.115 15.7878L26.3055 14.616C26.5954 12.921 26.599 11.19 26.3158 9.49449C27.1911 10.3374 27.9479 11.295 28.5656 12.3412C29.2614 13.7175 29.7039 15.208 29.8724 16.7412C30.1019 19.5372 31.2719 22.1727 33.1921 24.2186C32.5842 24.4829 31.9921 24.782 31.419 25.1146C31.3909 25.1281 31.3604 25.1281 31.3335 25.1439C31.3067 25.1598 31.2798 25.1958 31.2493 25.2172C30.1983 25.8367 29.215 26.5642 28.316 27.3894C24.8894 23.3373 25.324 20.6035 26.115 15.7878ZM15.7866 25.996L15.3643 24.8906C14.7686 23.2738 13.9062 21.7681 12.8118 20.4369C13.9928 20.7335 15.1281 21.1882 16.187 21.7894C17.4767 22.6342 18.6059 23.7029 19.5202 24.945C21.123 27.257 23.4649 28.9544 26.1602 29.76C25.7635 30.2855 25.3966 30.8336 25.0616 31.4013C25.039 31.433 25.0054 31.4531 24.9853 31.4879C24.9657 31.5227 24.9694 31.5465 24.956 31.5746C24.3413 32.6403 23.8421 33.7688 23.4667 34.9413C18.5107 33.1383 17.5164 30.5547 15.7866 25.996ZM14.6667 37.221C17.2033 38.4166 20.0701 38.7182 22.8002 38.0773C22.5487 40.0164 22.6427 41.9854 23.0785 43.8921C17.8789 44.8254 15.7268 43.0797 11.9506 39.9969L11.0344 39.2516C9.71303 38.1542 8.21706 37.2844 6.60939 36.6784C7.77699 36.3427 8.98488 36.1663 10.2001 36.1547C11.7406 36.2407 13.2537 36.6021 14.6667 37.221Z" fill="#FFE68D"/>
<path d="M33.3339 36.1549C33.3601 36.1549 36.0005 36.2294 36.0005 37.4879V41.4882C36.0005 42.9609 37.1943 44.1548 38.6671 44.1548H41.3338C42.8065 44.1548 44.0004 42.9609 44.0004 41.4882V37.4879C44.0004 36.2349 46.6206 36.1549 46.667 36.1549C47.4031 36.1549 48 35.558 48 34.8213C48 34.0852 47.4031 33.4883 46.667 33.4883C44.8219 33.4883 41.3338 34.3239 41.3338 37.4879V41.4882H38.6671V37.4879C38.6671 34.3239 35.179 33.4883 33.3339 33.4883C32.5972 33.4883 32.0002 34.0852 32.0002 34.8213C32.0002 35.558 32.5972 36.1549 33.3339 36.1549Z" fill="#FFE68D"/>
<path d="M41.3337 46.8213H38.6671C37.9304 46.8213 37.3335 47.4182 37.3335 48.1543C37.3335 48.891 37.9304 49.4879 38.6671 49.4879H41.3337C42.0698 49.4879 42.6668 48.891 42.6668 48.1543C42.6668 47.4182 42.0698 46.8213 41.3337 46.8213Z" fill="#FFE68D"/>
</g>
<defs>
<clipPath id="clip0_20229_61">
<rect width="80" height="80" fill="white"/>
</clipPath>
</defs>
</svg>
