<svg width="80" height="80" viewBox="0 0 80 80" fill="none" xmlns="http://www.w3.org/2000/svg">
<path fill-rule="evenodd" clip-rule="evenodd" d="M60 40C60 51 51 60 40 60C29 60 20 51 20 40C20 29 29 20 40 20C51 20 60 29 60 40ZM40 55C41.875 55 43.625 54.625 45.25 54.125C49 52.625 51 48.5 49.625 44.625C48.25 40.75 44 38.625 40 40C36.125 41.375 31.875 39.375 30.5 35.375C29.125 31.5 31.125 27.125 35.125 25.75L35.5 25.625C29.375 27.75 25 33.375 25 40C25 48.25 31.75 55 40 55ZM42.5 50C43.875 50 45 48.875 45 47.5C45 46.125 43.875 45 42.5 45C41.125 45 40 46.125 40 47.5C40 48.875 41.125 50 42.5 50ZM37.5 35C38.875 35 40 33.875 40 32.5C40 31.125 38.875 30 37.5 30C36.125 30 35 31.125 35 32.5C35 33.875 36.125 35 37.5 35ZM66.5 10L58.5 2L56.375 7L63 13.625L66.5 10ZM5 37.5V28.25L0 26.125V37.5H5ZM0 53.875L5 51.75V42.5H0V53.875ZM6.875 56.375L1.875 58.5L10 66.5L13.5 63L6.875 56.375ZM21.5 78.125L23.625 73.125L17 66.5L13.5 70L21.5 78.125ZM73.125 23.625L78.125 21.5L70 13.5L66.5 17L73.125 23.625ZM37.5 0H26.125L28.25 5H37.5V0ZM51.75 5L53.875 0H42.5V5H51.75ZM75 28.25V51.875L80 54V26.125L75 28.25ZM73.125 56.375L56.375 73.125L58.5 78.125L78.125 58.5L73.125 56.375ZM51.75 75H28.25L26.125 80H53.875L51.75 75ZM6.875 23.625L23.625 6.875L21.5 1.875L1.875 21.5L6.875 23.625ZM25.625 11.875L11.875 25.625L16.875 27.75L27.75 16.875L25.625 11.875ZM49.75 10H30.25L32.375 15H47.625L49.75 10ZM54.375 68.125L68.125 54.375L63.125 52.25L52.25 63.125L54.375 68.125ZM11.875 54.375L25.625 68.125L27.75 63.125L16.875 52.25L11.875 54.375ZM15 32.375L10 30.25V37.5H15V32.375ZM15 42.5H10V49.75L15 47.625V42.5ZM37.5 70V65H32.375L30.25 70H37.5ZM42.5 65V70H49.75L47.625 65H42.5ZM70 42.5H65V47.625L70 49.75V42.5ZM65 37.5H70V30.25L65 32.375V37.5ZM63 20.5L59.5 24L63.125 27.625L68.125 25.5L63 20.5ZM55.875 20.5L59.375 17L54.25 11.875L52.125 16.875L55.875 20.5Z" fill="#FFE68D"/>
</svg>
