<svg width="512" height="512" viewBox="0 0 512 512" fill="none" xmlns="http://www.w3.org/2000/svg">
<rect width="512" height="512" fill="#822D2A"/>
<rect x="67" y="67" width="378" height="378" rx="189" fill="#822D2A"/>
<rect x="67" y="67" width="378" height="378" rx="189" stroke="#CF9E45" stroke-width="18"/>
<mask id="mask0_514_2082" style="mask-type:luminance" maskUnits="userSpaceOnUse" x="94" y="94" width="324" height="324">
<path d="M418 94H94V418H418V94Z" fill="white"/>
</mask>
<g mask="url(#mask0_514_2082)">
<path d="M255.976 144.269C194.368 144.269 144.268 194.393 144.268 255.977C144.268 317.561 194.393 367.686 255.976 367.686C317.56 367.686 367.685 317.561 367.685 255.977C367.685 194.393 317.56 144.269 255.976 144.269ZM255.976 359.395C198.966 359.395 152.582 313.011 152.582 256.001C152.582 198.991 198.966 152.583 255.976 152.583C312.986 152.583 359.37 198.967 359.37 255.977C359.37 312.987 312.986 359.371 255.976 359.371V359.395Z" fill="#F8F1E4"/>
<path d="M255.976 94C166.519 94 94 166.519 94 255.976C94 345.433 166.519 417.953 255.976 417.953C345.433 417.953 417.953 345.433 417.953 255.976C417.953 166.519 345.433 94 255.976 94ZM410.948 272.033C410.09 280.038 408.47 287.948 408.47 287.948L382.17 282.468C382.17 282.468 381.86 283.755 381.407 285.708C381.002 287.662 380.263 290.235 379.525 292.783C378.834 295.357 377.858 297.834 377.262 299.74C376.595 301.622 376.07 302.837 376.07 302.837L398.322 311.532C398.322 311.532 398.679 310.603 399.227 309.245C399.775 307.864 400.347 305.982 401.014 304.123C401.681 302.265 402.252 300.383 402.634 298.93C403.039 297.5 403.301 296.547 403.301 296.547L388.912 292.593C388.912 292.593 388.53 293.975 388.125 295.332C387.768 296.715 387.291 298.048 387.291 298.048L394.391 300.335L393.438 303.17L383.551 299.787C383.551 299.787 383.765 299.12 384.099 298.144C384.432 297.167 384.885 295.833 385.242 294.499C385.624 293.165 386.005 291.807 386.291 290.806C386.6 289.805 386.743 289.115 386.743 289.115L407.018 294.237C407.018 294.237 406.946 294.594 406.779 295.166C406.613 295.762 406.374 296.619 406.088 297.62C405.492 299.645 404.778 302.385 403.825 305.029C402.943 307.697 402.015 310.365 401.205 312.319C400.418 314.296 399.918 315.606 399.918 315.606C399.918 315.606 399.728 316.083 399.394 316.893C399.037 317.703 398.513 318.847 397.893 320.228C396.702 323.015 394.843 326.589 393.009 330.162C391.008 333.665 389.055 337.167 387.363 339.668C386.553 340.931 385.862 342.003 385.385 342.742C384.909 343.48 384.6 343.885 384.6 343.885L362.42 328.71C362.42 328.71 361.658 329.805 360.49 331.425C359.37 333.093 357.679 335.142 356.035 337.238C354.368 339.311 352.557 341.288 351.27 342.813C349.888 344.266 348.96 345.219 348.96 345.219L366.184 361.752C366.184 361.752 366.875 361.038 367.875 359.966C368.923 358.917 370.186 357.417 371.497 355.916C372.783 354.415 374.093 352.938 374.975 351.747C375.88 350.58 376.5 349.817 376.5 349.817L364.73 340.645C364.73 340.645 363.849 341.765 362.967 342.885C362.539 343.456 362.086 344.004 361.729 344.385C361.371 344.79 361.157 345.053 361.157 345.053L366.851 349.888L364.873 352.152L357.035 345.219C357.035 345.219 357.488 344.695 358.179 343.909C358.846 343.099 359.823 342.098 360.657 340.978C362.372 338.787 364.111 336.595 364.111 336.595L380.859 349.103C380.859 349.103 380.002 350.222 378.691 351.866C377.405 353.533 375.642 355.749 373.76 357.845C372.83 358.894 371.901 359.966 371.044 360.966C370.138 361.92 369.281 362.825 368.566 363.587C367.113 365.112 366.136 366.136 366.136 366.136C366.136 366.136 364.683 367.518 362.491 369.615C361.419 370.662 360.109 371.854 358.68 373.069C357.25 374.284 355.773 375.665 354.177 376.905C352.605 378.143 351.008 379.382 349.531 380.55C348.03 381.669 346.577 382.67 345.338 383.551C342.908 385.338 341.169 386.386 341.169 386.386L326.446 363.897C326.446 363.897 325.326 364.612 323.635 365.683C321.943 366.755 319.609 368.018 317.298 369.376C314.915 370.568 312.581 371.854 310.747 372.664C308.936 373.497 307.721 374.045 307.721 374.045L317.322 395.915C317.322 395.915 318.227 395.51 319.561 394.891C320.919 394.295 322.706 393.462 324.445 392.532C326.208 391.628 327.971 390.746 329.258 390.031C330.544 389.292 331.402 388.793 331.402 388.793L324.016 375.808C324.016 375.808 322.778 376.523 321.538 377.214C320.276 377.858 319.013 378.5 319.013 378.5L322.444 385.148L319.775 386.505L315.177 377.119C315.177 377.119 317.655 375.856 320.133 374.57C322.539 373.188 324.969 371.783 324.969 371.783L335.69 389.722C335.69 389.722 334.475 390.436 332.64 391.485C330.83 392.58 328.328 393.867 325.803 395.13C323.325 396.463 320.705 397.56 318.799 398.441C316.893 399.323 315.559 399.847 315.559 399.847C315.559 399.847 313.677 400.585 310.865 401.705C309.484 402.3 307.793 402.825 306.005 403.42C304.219 404.015 302.313 404.707 300.383 405.23C298.453 405.778 296.5 406.326 294.69 406.827C292.855 407.255 291.14 407.66 289.662 407.994C288.185 408.327 286.97 408.613 286.089 408.756C285.231 408.923 284.731 408.995 284.731 408.995L279.8 382.575C279.8 382.575 278.49 382.812 276.512 383.17C274.535 383.528 271.89 383.765 269.246 384.147C266.577 384.338 263.933 384.575 261.932 384.671C259.931 384.718 258.597 384.743 258.597 384.743L259.073 408.638C259.073 408.638 260.05 408.613 261.527 408.566C263.004 408.566 264.981 408.447 266.935 408.28C268.913 408.113 270.866 408.018 272.343 407.828C273.82 407.637 274.797 407.517 274.797 407.517L272.963 392.7C272.963 392.7 271.557 392.89 270.128 393.057C268.698 393.176 267.293 393.271 267.293 393.271L267.912 400.704L264.91 400.943L264.267 390.507C264.267 390.507 267.054 390.293 269.817 390.079L275.345 389.364L278.322 410.043C278.322 410.043 276.917 410.21 274.82 410.495C272.724 410.805 269.913 411.043 267.125 411.234C264.315 411.496 261.503 411.544 259.407 411.591C257.287 411.639 255.881 411.687 255.881 411.687C255.881 411.687 253.88 411.639 250.854 411.567C247.828 411.567 243.826 411.162 239.824 410.877C231.819 410.019 223.91 408.399 223.91 408.399L229.389 382.098C229.389 382.098 228.102 381.788 226.149 381.335C224.195 380.93 221.622 380.192 219.073 379.453C216.5 378.762 214.023 377.786 212.117 377.19C210.235 376.523 209.02 375.999 209.02 375.999L200.325 398.25C200.325 398.25 201.253 398.607 202.612 399.155C203.993 399.703 205.875 400.299 207.733 400.943C209.592 401.61 211.474 402.181 212.927 402.563L215.31 403.23L219.264 388.84C219.264 388.84 217.883 388.459 216.525 388.054C215.142 387.696 213.808 387.22 213.808 387.22L211.522 394.32L208.687 393.367L212.07 383.48C212.07 383.48 212.737 383.694 213.713 384.027C214.69 384.361 216.024 384.814 217.358 385.171C218.693 385.553 220.05 385.933 221.051 386.22C222.052 386.529 222.743 386.672 222.743 386.672L217.62 406.946C217.62 406.946 217.263 406.875 216.691 406.707C216.095 406.541 215.238 406.302 214.238 406.017C212.213 405.421 209.472 404.707 206.828 403.753C204.16 402.872 201.492 401.943 199.538 401.133C197.561 400.347 196.25 399.847 196.25 399.847C196.25 399.847 195.774 399.656 194.964 399.323C194.154 398.965 193.01 398.441 191.629 397.821C188.842 396.63 185.268 394.772 181.695 392.937C178.193 390.936 174.69 388.983 172.189 387.291C170.926 386.481 169.854 385.79 169.115 385.314C168.377 384.837 167.972 384.528 167.972 384.528L183.147 362.348C183.147 362.348 182.052 361.586 180.432 360.418C178.764 359.299 176.715 357.608 174.619 355.963C172.546 354.296 170.569 352.485 169.044 351.199C167.591 349.817 166.638 348.888 166.638 348.888L150.104 366.136C150.104 366.136 150.819 366.827 151.891 367.827C152.94 368.876 154.44 370.138 155.941 371.449C157.442 372.735 158.919 374.045 160.087 374.927C161.254 375.833 162.016 376.452 162.016 376.452L171.188 364.683C171.188 364.683 170.068 363.802 168.949 362.92C168.377 362.491 167.829 362.038 167.448 361.681C167.043 361.324 166.781 361.11 166.781 361.11L161.945 366.803L159.682 364.826L166.614 356.988C166.614 356.988 167.138 357.44 167.925 358.132C168.735 358.798 169.735 359.775 170.855 360.609C173.047 362.325 175.238 364.063 175.238 364.063L162.731 380.811C162.731 380.811 161.611 379.954 159.968 378.643C158.3 377.357 156.084 375.594 153.987 373.712C152.94 372.783 151.868 371.854 150.867 370.996C149.914 370.091 149.009 369.233 148.246 368.518C146.721 367.065 145.697 366.088 145.697 366.088C145.697 366.088 144.315 364.635 142.219 362.443C141.171 361.371 139.979 360.061 138.764 358.632C137.549 357.203 136.168 355.725 134.929 354.129C133.69 352.557 132.451 350.96 131.284 349.483C130.164 347.982 129.164 346.53 128.282 345.29C126.495 342.86 125.447 341.122 125.447 341.122L147.936 326.398C147.936 326.398 147.222 325.279 146.15 323.588C145.078 321.896 143.815 319.561 142.457 317.25C141.266 314.868 139.979 312.533 139.169 310.699C138.336 308.888 137.788 307.673 137.788 307.673L115.918 317.274C115.918 317.274 116.323 318.18 116.942 319.513C117.538 320.872 118.371 322.658 119.301 324.398C120.206 326.16 121.087 327.923 121.802 329.21C122.541 330.496 123.041 331.354 123.041 331.354L136.025 323.968C136.025 323.968 135.31 322.73 134.619 321.491C133.976 320.228 133.333 318.965 133.333 318.965L126.686 322.396L125.328 319.728L134.714 315.13C134.714 315.13 135.977 317.607 137.264 320.085C138.645 322.492 140.051 324.921 140.051 324.921L122.112 335.642C122.112 335.642 121.421 334.427 120.349 332.592C119.253 330.782 117.966 328.28 116.704 325.755C115.37 323.277 114.274 320.657 113.392 318.751C112.511 316.845 111.987 315.511 111.987 315.511C111.987 315.511 111.248 313.629 110.129 310.818C109.533 309.413 109.009 307.745 108.413 305.958C107.818 304.171 107.127 302.265 106.603 300.335C106.055 298.406 105.507 296.453 105.006 294.642C104.578 292.808 104.173 291.092 103.839 289.615C103.506 288.138 103.22 286.923 103.077 286.042C102.91 285.184 102.839 284.683 102.839 284.683L129.259 279.752C129.259 279.752 129.021 278.442 128.663 276.465C128.306 274.487 128.068 271.842 127.686 269.198C127.496 266.53 127.258 263.885 127.162 261.885C127.115 259.883 127.091 258.549 127.091 258.549L103.196 259.025C103.196 259.025 103.22 260.003 103.267 261.48C103.267 262.957 103.386 264.934 103.553 266.888C103.72 268.865 103.815 270.818 104.006 272.295C104.196 273.773 104.316 274.749 104.316 274.749L119.134 272.915L118.776 270.08L118.562 267.245L111.129 267.864L110.891 264.863L121.326 264.219C121.326 264.219 121.54 267.007 121.754 269.77C122.112 272.533 122.469 275.297 122.469 275.297L101.79 278.275C101.79 278.275 101.624 276.87 101.338 274.773C101.028 272.677 100.79 269.865 100.599 267.054C100.337 264.243 100.289 261.432 100.242 259.335C100.194 257.215 100.146 255.81 100.146 255.81C100.146 255.81 100.194 253.808 100.266 250.782C100.266 247.757 100.671 243.755 100.956 239.753C101.814 231.747 103.434 223.838 103.434 223.838L129.735 229.317C129.735 229.317 130.045 228.031 130.498 226.077C130.903 224.124 131.641 221.551 132.38 219.002C133.071 216.429 134.047 213.952 134.643 212.045C135.31 210.163 135.834 208.948 135.834 208.948L113.583 200.253C113.583 200.253 113.226 201.182 112.678 202.54C112.13 203.922 111.558 205.804 110.891 207.662C110.224 209.52 109.652 211.403 109.271 212.855C108.866 214.285 108.604 215.238 108.604 215.238L122.993 219.192C122.993 219.192 123.374 217.811 123.779 216.453C124.137 215.071 124.613 213.737 124.613 213.737L117.514 211.45L118.467 208.615L128.354 211.998C128.354 211.998 128.139 212.665 127.806 213.642C127.472 214.618 127.019 215.952 126.662 217.287C126.281 218.621 125.9 219.979 125.614 220.98C125.304 221.98 125.161 222.671 125.161 222.671L104.887 217.549C104.887 217.549 104.959 217.192 105.126 216.62C105.292 216.024 105.531 215.19 105.816 214.166C106.412 212.141 107.127 209.401 108.08 206.757C108.961 204.088 109.89 201.42 110.7 199.467C111.486 197.49 111.987 196.179 111.987 196.179C111.987 196.179 112.177 195.702 112.511 194.892C112.868 194.082 113.392 192.939 114.012 191.558C115.203 188.77 117.061 185.197 118.896 181.623C120.897 178.121 122.85 174.619 124.542 172.118C125.352 170.855 126.043 169.782 126.519 169.044C126.996 168.305 127.305 167.9 127.305 167.9L149.485 183.076C149.485 183.076 150.247 181.98 151.415 180.36C152.535 178.692 154.226 176.644 155.87 174.548C157.538 172.475 159.348 170.498 160.635 168.972C162.016 167.52 162.945 166.567 162.945 166.567L145.697 150.033L144.006 151.82C142.957 152.868 141.695 154.369 140.384 155.87C139.098 157.37 137.788 158.847 136.906 160.039C136.001 161.206 135.381 161.968 135.381 161.968L147.15 171.14C147.15 171.14 148.032 170.021 148.913 168.901C149.342 168.33 149.795 167.782 150.152 167.4C150.509 166.995 150.724 166.733 150.724 166.733L145.03 161.897L147.007 159.634L154.845 166.567C154.845 166.567 154.392 167.09 153.702 167.877C153.035 168.687 152.058 169.688 151.224 170.807C149.509 172.999 147.77 175.19 147.77 175.19L131.022 162.683C131.022 162.683 131.879 161.563 133.19 159.92C134.476 158.252 136.239 156.037 138.121 153.94C139.05 152.892 139.979 151.82 140.837 150.819C141.742 149.866 142.6 148.961 143.315 148.198C144.768 146.674 145.745 145.65 145.745 145.65C145.745 145.65 147.198 144.267 149.39 142.171C150.462 141.123 151.772 139.932 153.202 138.717C154.631 137.502 156.108 136.12 157.704 134.881C159.277 133.642 160.872 132.404 162.35 131.236C163.85 130.116 165.304 129.116 166.542 128.234C168.972 126.448 170.712 125.399 170.712 125.399L185.435 147.889C185.435 147.889 186.555 147.174 188.246 146.078C189.938 145.006 192.272 143.743 194.583 142.385C196.965 141.195 199.3 139.908 201.135 139.098C202.945 138.264 204.16 137.716 204.16 137.716L194.559 115.846C194.559 115.846 193.654 116.251 192.32 116.871C190.962 117.466 189.175 118.3 187.436 119.229C185.673 120.134 183.91 121.016 182.623 121.731C181.337 122.469 180.48 122.969 180.48 122.969L187.865 135.953C187.865 135.953 189.103 135.238 190.343 134.547C191.605 133.904 192.867 133.261 192.867 133.261L189.437 126.614L192.105 125.256L196.703 134.643L191.748 137.192C189.342 138.574 186.912 139.98 186.912 139.98L176.191 122.04C176.191 122.04 177.406 121.326 179.24 120.277C181.051 119.181 183.552 117.895 186.078 116.632C188.555 115.298 191.176 114.202 193.082 113.321C194.988 112.439 196.322 111.915 196.322 111.915C196.322 111.915 198.204 111.177 201.015 110.057C202.421 109.461 204.088 108.937 205.875 108.342C207.662 107.746 209.568 107.055 211.497 106.531C213.428 105.983 215.381 105.435 217.192 104.935C219.026 104.506 220.741 104.101 222.218 103.768C223.695 103.434 224.91 103.148 225.792 103.005C226.65 102.839 227.15 102.767 227.15 102.767L232.081 129.187C232.081 129.187 233.392 128.949 235.369 128.592C237.346 128.234 239.99 127.996 242.635 127.615C245.303 127.424 247.947 127.186 249.949 127.091C251.95 127.043 253.284 127.019 253.284 127.019L252.807 103.124C252.807 103.124 251.831 103.148 250.354 103.196C248.877 103.196 246.9 103.315 244.946 103.482C242.968 103.649 241.015 103.744 239.538 103.934C238.061 104.125 237.084 104.244 237.084 104.244L238.918 119.062C238.918 119.062 240.324 118.872 241.753 118.705C243.183 118.586 244.588 118.491 244.588 118.491L243.969 111.058L246.971 110.819L247.614 121.254C247.614 121.254 244.827 121.469 242.063 121.683L236.536 122.398L233.558 101.719C233.558 101.719 234.964 101.552 237.06 101.266C239.157 100.956 241.968 100.718 244.755 100.528C247.567 100.266 250.377 100.218 252.474 100.17C254.595 100.123 256 100.075 256 100.075C256 100.075 258.001 100.123 261.027 100.194C264.053 100.194 268.055 100.599 272.057 100.885C280.062 101.743 287.971 103.363 287.971 103.363L282.492 129.664C282.492 129.664 283.778 129.974 285.732 130.426C287.685 130.831 290.258 131.57 292.808 132.308C295.38 132.999 297.858 133.976 299.764 134.572C301.646 135.238 302.861 135.762 302.861 135.762L311.557 113.511C311.557 113.511 310.628 113.154 309.27 112.606C307.887 112.058 306.005 111.486 304.148 110.819C302.289 110.152 300.407 109.581 298.954 109.199C297.525 108.794 296.572 108.532 296.572 108.532L292.617 122.922L295.356 123.708C296.738 124.065 298.073 124.542 298.073 124.542L300.36 117.442L303.195 118.395L299.811 128.282C299.811 128.282 299.145 128.068 298.167 127.734C297.191 127.401 295.857 126.948 294.522 126.591C293.188 126.209 291.83 125.828 290.83 125.542C289.83 125.233 289.138 125.09 289.138 125.09L294.26 104.816C294.26 104.816 294.618 104.887 295.19 105.054C295.785 105.221 296.643 105.459 297.643 105.745C299.668 106.341 302.408 107.055 305.052 108.008C307.721 108.89 310.389 109.819 312.342 110.629C314.32 111.415 315.63 111.915 315.63 111.915C315.63 111.915 316.107 112.106 316.917 112.439C317.727 112.797 318.87 113.321 320.252 113.94C323.04 115.131 326.613 116.99 330.186 118.824C333.688 120.825 337.19 122.779 339.692 124.47C340.955 125.28 342.027 125.971 342.765 126.448C343.504 126.924 343.909 127.234 343.909 127.234L328.733 149.413C328.733 149.413 329.829 150.176 331.449 151.343C333.117 152.463 335.165 154.155 337.262 155.798C339.335 157.466 341.312 159.277 342.837 160.563C344.29 161.945 345.243 162.874 345.243 162.874L361.777 145.65C361.777 145.65 361.062 144.958 359.99 143.958C358.942 142.91 357.44 141.647 355.94 140.337C354.439 139.05 352.962 137.74 351.795 136.858C350.627 135.953 349.865 135.334 349.865 135.334L340.692 147.102C340.692 147.102 341.813 147.984 342.932 148.865C343.504 149.295 344.052 149.747 344.433 150.105C344.838 150.462 345.1 150.676 345.1 150.676L349.936 144.983L352.2 146.96L345.267 154.797C345.267 154.797 344.742 154.345 343.957 153.654C343.147 152.987 342.146 152.01 341.026 151.177C338.835 149.461 336.642 147.722 336.642 147.722L349.15 130.974C349.15 130.974 350.27 131.832 351.913 133.142C353.581 134.429 355.797 136.192 357.893 138.073C358.941 139.002 360.013 139.932 361.014 140.79C361.967 141.695 362.873 142.553 363.635 143.267C365.16 144.72 366.184 145.697 366.184 145.697C366.184 145.697 367.565 147.15 369.662 149.342C370.71 150.414 371.902 151.725 373.117 153.154C374.332 154.583 375.713 156.06 376.952 157.657C378.191 159.229 379.43 160.825 380.597 162.302C381.717 163.803 382.718 165.256 383.599 166.495C385.385 168.925 386.434 170.664 386.434 170.664L363.945 185.387C363.945 185.387 364.659 186.507 365.731 188.198C366.803 189.89 368.066 192.225 369.424 194.535C370.615 196.917 371.901 199.253 372.711 201.087C373.545 202.898 374.093 204.113 374.093 204.113L395.963 194.512C395.963 194.512 395.558 193.606 394.939 192.272C394.343 190.914 393.51 189.128 392.58 187.388C391.675 185.625 390.793 183.863 390.079 182.576L388.84 180.432L375.856 187.817C375.856 187.817 376.571 189.056 377.262 190.295C377.905 191.558 378.548 192.82 378.548 192.82L385.195 189.39L386.553 192.057L377.166 196.655C377.166 196.655 375.904 194.178 374.618 191.7C373.235 189.294 371.83 186.864 371.83 186.864L389.769 176.143C389.769 176.143 390.484 177.358 391.532 179.193C392.628 181.003 393.915 183.505 395.177 186.03C396.511 188.508 397.607 191.128 398.488 193.035C399.37 194.964 399.894 196.275 399.894 196.275C399.894 196.275 400.632 198.157 401.753 200.967C402.348 202.373 402.872 204.041 403.467 205.827C404.063 207.615 404.754 209.52 405.278 211.45C405.826 213.38 406.374 215.333 406.875 217.144C407.303 218.978 407.708 220.693 408.042 222.17C408.375 223.647 408.661 224.862 408.804 225.744C408.971 226.602 409.043 227.102 409.043 227.102L382.622 232.033C382.622 232.033 382.86 233.344 383.217 235.321C383.575 237.298 383.813 239.943 384.195 242.588C384.385 245.255 384.623 247.9 384.718 249.901C384.766 251.903 384.79 253.237 384.79 253.237L408.685 252.76C408.685 252.76 408.661 251.783 408.613 250.306C408.613 248.829 408.495 246.852 408.327 244.898C408.161 242.921 408.065 240.968 407.875 239.49C407.685 238.013 407.565 237.037 407.565 237.037L392.747 238.871C392.747 238.871 392.937 240.277 393.105 241.706C393.223 243.135 393.319 244.541 393.319 244.541L400.752 243.922L400.99 246.923L390.555 247.567L390.127 242.015C389.769 239.252 389.412 236.488 389.412 236.488L410.09 233.51C410.09 233.51 410.258 234.916 410.543 237.012C410.853 239.109 411.091 241.92 411.282 244.732C411.544 247.542 411.591 250.354 411.639 252.45C411.687 254.57 411.735 255.976 411.735 255.976C411.735 255.976 411.687 257.978 411.615 261.003C411.615 264.028 411.21 268.031 410.925 272.033H410.948Z" fill="#F8F1E4"/>
<path d="M381.25 242.969C380.535 236.489 379.249 230.128 379.249 230.128L405.55 224.649C405.55 224.649 405.193 223.1 404.668 220.789C404.192 218.455 403.311 215.429 402.453 212.403C401.619 209.354 400.476 206.4 399.761 204.137C398.951 201.897 398.355 200.444 398.355 200.444L376.104 209.14C376.104 209.14 376.414 209.902 376.866 211.069C377.319 212.237 377.819 213.833 378.367 215.405C378.939 216.978 379.416 218.574 379.725 219.765C380.059 220.956 380.297 221.766 380.297 221.766L394.686 217.811C394.686 217.811 394.281 216.382 393.876 214.953C393.495 213.523 393.019 212.118 393.019 212.118L385.919 214.405L385.014 211.736L394.901 208.353C394.901 208.353 395.139 209.068 395.52 210.14C395.901 211.212 396.378 212.642 396.759 214.119C397.164 215.572 397.593 217.049 397.903 218.145C398.236 219.241 398.379 219.979 398.379 219.979L378.105 225.101C378.105 225.101 378.058 224.816 377.915 224.339C377.772 223.863 377.581 223.172 377.343 222.362C376.866 220.718 376.295 218.526 375.532 216.382C374.818 214.214 374.079 212.07 373.412 210.498C372.793 208.901 372.364 207.853 372.364 207.853C372.364 207.853 372.221 207.472 371.935 206.829C371.649 206.186 371.22 205.256 370.72 204.137C369.767 201.873 368.242 199.015 366.765 196.108C365.145 193.297 363.573 190.438 362.191 188.413C361.524 187.389 360.976 186.531 360.595 185.936C360.214 185.34 359.952 185.006 359.952 185.006L382.131 169.831C382.131 169.831 381.226 168.544 379.844 166.615C378.51 164.661 376.509 162.207 374.579 159.706C372.602 157.252 370.482 154.893 368.933 153.107C367.289 151.391 366.217 150.248 366.217 150.248L348.993 166.781C348.993 166.781 349.565 167.377 350.422 168.282C351.304 169.164 352.376 170.45 353.472 171.689C354.568 172.952 355.663 174.191 356.426 175.191C357.188 176.168 357.712 176.835 357.712 176.835L369.481 167.663C369.481 167.663 368.552 166.496 367.647 165.328C367.194 164.733 366.718 164.161 366.336 163.756C365.979 163.327 365.717 163.065 365.717 163.065L360.023 167.901L358.189 165.781L366.027 158.848C366.027 158.848 366.527 159.42 367.266 160.278C368.004 161.159 369.052 162.255 369.958 163.47L373.698 168.235L356.95 180.742C356.95 180.742 356.235 179.837 355.187 178.503C354.139 177.145 352.733 175.358 351.208 173.666C350.47 172.809 349.708 171.951 349.017 171.141C348.278 170.379 347.587 169.64 346.992 169.021C345.824 167.782 345.038 166.948 345.038 166.948C345.038 166.948 343.871 165.828 342.084 164.137C341.226 163.279 340.178 162.326 338.987 161.326C337.82 160.349 336.628 159.229 335.342 158.229C334.056 157.228 332.793 156.228 331.578 155.275C330.339 154.393 329.172 153.559 328.195 152.845C326.241 151.391 324.836 150.558 324.836 150.558L339.559 128.068C339.559 128.068 338.225 127.211 336.223 125.948C334.222 124.685 331.459 123.161 328.719 121.564C325.908 120.135 323.121 118.634 320.953 117.657C318.785 116.681 317.355 116.037 317.355 116.037L307.754 137.907C307.754 137.907 308.517 138.241 309.66 138.765C310.804 139.265 312.328 139.956 313.782 140.742C315.259 141.505 316.76 142.243 317.856 142.839C318.928 143.458 319.666 143.887 319.666 143.887L327.051 130.903C327.051 130.903 325.765 130.165 324.478 129.426C323.144 128.759 321.834 128.068 321.834 128.068L318.403 134.715L315.902 133.428L320.5 124.042L325.908 126.806C328.552 128.306 331.173 129.831 331.173 129.831L320.452 147.77C320.452 147.77 319.476 147.198 317.975 146.365C316.521 145.483 314.473 144.435 312.448 143.411C310.446 142.315 308.326 141.457 306.778 140.742C305.229 140.004 304.181 139.599 304.181 139.599C304.181 139.599 302.68 139.003 300.393 138.098C299.273 137.621 297.915 137.216 296.462 136.716C295.009 136.24 293.484 135.668 291.912 135.263C290.339 134.81 288.791 134.381 287.314 133.953C285.837 133.619 284.431 133.286 283.264 133.024C282.073 132.738 281.096 132.523 280.381 132.404C279.69 132.285 279.285 132.213 279.285 132.213L284.217 105.793C284.217 105.793 282.668 105.507 280.333 105.102C277.999 104.697 274.854 104.364 271.733 103.959C268.588 103.721 265.444 103.435 263.085 103.339C260.727 103.268 259.154 103.244 259.154 103.244L258.678 127.139C258.678 127.139 259.512 127.139 260.751 127.187C262.013 127.187 263.657 127.282 265.325 127.449C266.992 127.592 268.66 127.663 269.899 127.83C271.138 127.997 271.971 128.092 271.971 128.092L273.806 113.274L270.852 112.893C269.375 112.773 267.898 112.654 267.898 112.654L267.278 120.087L264.467 119.873L265.11 109.438L271.161 109.915L277.189 110.677L274.211 131.356C274.211 131.356 273.091 131.213 271.376 130.998C269.684 130.736 267.421 130.546 265.134 130.403C262.871 130.188 260.584 130.141 258.868 130.117C257.153 130.069 256.01 130.046 256.01 130.046C256.01 130.046 254.39 130.093 251.936 130.165C249.482 130.165 246.242 130.498 243.002 130.713C236.522 131.427 230.161 132.714 230.161 132.714L224.682 106.413C224.682 106.413 223.133 106.77 220.822 107.294C218.511 107.771 215.462 108.652 212.436 109.51C209.387 110.344 206.433 111.487 204.17 112.202C201.93 113.012 200.477 113.607 200.477 113.607L209.173 135.858C209.173 135.858 209.935 135.549 211.102 135.096C212.27 134.643 213.866 134.143 215.438 133.595C217.011 133.024 218.607 132.547 219.798 132.237C220.989 131.904 221.799 131.666 221.799 131.666L217.844 117.276C217.844 117.276 216.415 117.681 214.986 118.086C213.556 118.467 212.151 118.944 212.151 118.944L214.438 126.043L211.769 126.948L208.386 117.062C208.386 117.062 209.101 116.824 210.173 116.442C211.245 116.061 212.675 115.585 214.152 115.204C215.605 114.799 217.082 114.37 218.178 114.06C219.274 113.726 220.012 113.584 220.012 113.584L225.134 133.857C225.134 133.857 224.848 133.905 224.372 134.048C223.896 134.191 223.205 134.381 222.395 134.62C220.751 135.096 218.559 135.668 216.415 136.43C214.247 137.145 212.103 137.883 210.531 138.551C208.934 139.17 207.886 139.599 207.886 139.599C207.886 139.599 207.505 139.742 206.862 140.028C206.218 140.313 205.289 140.742 204.17 141.243C201.906 142.196 199.048 143.72 196.141 145.197C193.33 146.817 190.471 148.39 188.446 149.771C187.422 150.438 186.564 150.986 185.968 151.368C185.373 151.749 185.039 152.011 185.039 152.011L169.864 129.831C169.864 129.831 168.577 130.736 166.648 132.118C164.694 133.452 162.24 135.453 159.763 137.383C157.309 139.361 154.95 141.481 153.163 143.029C151.448 144.673 150.305 145.745 150.305 145.745L166.838 162.97C166.838 162.97 167.434 162.398 168.339 161.54C169.221 160.659 170.507 159.587 171.746 158.491C173.008 157.395 174.247 156.299 175.248 155.537C176.225 154.774 176.892 154.25 176.892 154.25L167.72 142.481C167.72 142.481 166.552 143.411 165.385 144.316C164.789 144.768 164.218 145.245 163.813 145.626C163.384 145.983 163.122 146.246 163.122 146.246L167.958 151.939L165.838 153.774L158.905 145.936C158.905 145.936 159.477 145.436 160.334 144.697C161.216 143.958 162.312 142.91 163.527 142.005C165.909 140.123 168.291 138.265 168.291 138.265L180.799 155.013C180.799 155.013 179.893 155.727 178.559 156.776C177.201 157.824 175.415 159.229 173.723 160.754C172.866 161.493 172.008 162.255 171.198 162.946C170.436 163.684 169.697 164.375 169.078 164.971C167.839 166.138 167.005 166.924 167.005 166.924C167.005 166.924 165.885 168.092 164.194 169.878C163.336 170.736 162.383 171.808 161.383 172.976C160.406 174.143 159.286 175.334 158.286 176.621C157.285 177.907 156.284 179.17 155.331 180.385C154.45 181.623 153.616 182.791 152.901 183.768C151.448 185.721 150.614 187.127 150.614 187.127L128.125 172.404C128.125 172.404 127.267 173.738 126.005 175.739C124.742 177.74 123.217 180.504 121.621 183.243C120.192 186.055 118.691 188.842 117.714 191.01C116.737 193.178 116.094 194.607 116.094 194.607L137.964 204.208C137.964 204.208 138.298 203.446 138.822 202.302C139.322 201.159 140.013 199.634 140.799 198.181C141.561 196.704 142.3 195.203 142.895 194.107C143.515 193.035 143.944 192.296 143.944 192.296L130.96 184.911C130.96 184.911 130.221 186.198 129.483 187.484L128.125 190.128L134.772 193.559L133.485 196.061L124.099 191.463L126.862 186.055C128.363 183.434 129.888 180.79 129.888 180.79L147.827 191.51C147.827 191.51 147.255 192.487 146.421 193.988C145.54 195.441 144.492 197.49 143.467 199.515C142.371 201.516 141.514 203.636 140.799 205.185C140.06 206.733 139.655 207.782 139.655 207.782C139.655 207.782 139.06 209.283 138.155 211.57C137.678 212.689 137.273 214.047 136.773 215.501C136.296 216.954 135.725 218.478 135.32 220.051C134.867 221.623 134.438 223.172 134.009 224.649C133.676 226.126 133.342 227.531 133.08 228.699C132.794 229.89 132.58 230.867 132.461 231.581C132.342 232.272 132.27 232.677 132.27 232.677L105.85 227.746C105.85 227.746 105.564 229.294 105.159 231.629C104.754 233.964 104.42 237.108 104.015 240.229C103.777 243.374 103.491 246.519 103.396 248.877C103.325 251.236 103.301 252.808 103.301 252.808L127.196 253.285C127.196 253.285 127.196 252.451 127.243 251.212C127.243 249.949 127.339 248.306 127.505 246.638C127.648 244.97 127.72 243.303 127.887 242.064C128.053 240.825 128.149 239.991 128.149 239.991L113.33 238.157C113.33 238.157 113.14 239.634 112.949 241.111C112.83 242.588 112.711 244.065 112.711 244.065L120.144 244.684L119.93 247.496L109.495 246.852C109.495 246.852 109.733 243.827 109.971 240.801L110.734 234.774L131.413 237.752C131.413 237.752 131.27 238.871 131.055 240.587C130.793 242.278 130.603 244.541 130.46 246.828C130.245 249.092 130.198 251.379 130.174 253.094C130.126 254.809 130.102 255.953 130.102 255.953C130.102 255.953 130.15 257.573 130.221 260.027C130.221 262.481 130.555 265.721 130.769 268.961C131.484 275.441 132.77 281.801 132.77 281.801L106.469 287.281C106.469 287.281 106.827 288.829 107.351 291.14C107.827 293.475 108.709 296.501 109.566 299.526C110.4 302.576 111.544 305.53 112.258 307.793C113.068 310.032 113.664 311.486 113.664 311.486L135.915 302.79C135.915 302.79 135.605 302.028 135.153 300.86C134.7 299.693 134.2 298.097 133.652 296.524C133.08 294.952 132.604 293.356 132.294 292.165C131.96 290.973 131.722 290.163 131.722 290.163L117.333 294.118C117.333 294.118 117.738 295.548 118.143 296.977C118.524 298.406 119 299.812 119 299.812L126.1 297.525L127.005 300.193L117.118 303.576C117.118 303.576 116.88 302.861 116.499 301.789C116.118 300.717 115.641 299.288 115.26 297.811C114.855 296.358 114.426 294.881 114.117 293.785C113.783 292.689 113.64 291.95 113.64 291.95L133.914 286.828C133.914 286.828 133.962 287.114 134.105 287.591C134.248 288.067 134.438 288.758 134.676 289.568C135.153 291.212 135.725 293.403 136.487 295.548C137.202 297.716 137.94 299.86 138.607 301.432C139.227 303.028 139.655 304.076 139.655 304.076C139.655 304.076 139.798 304.458 140.084 305.101C140.37 305.744 140.799 306.673 141.299 307.793C142.252 310.056 143.777 312.915 145.254 315.821C146.874 318.633 148.446 321.491 149.828 323.516C150.495 324.541 151.043 325.398 151.424 325.994C151.805 326.59 152.068 326.923 152.068 326.923L129.888 342.099C129.888 342.099 130.793 343.385 132.175 345.315C133.509 347.268 135.51 349.722 137.44 352.224C139.417 354.678 141.538 357.036 143.086 358.823C144.73 360.538 145.802 361.682 145.802 361.682L163.05 345.148C163.05 345.148 162.478 344.553 161.621 343.647C160.739 342.766 159.667 341.479 158.571 340.241C157.476 338.978 156.38 337.739 155.617 336.738C154.855 335.762 154.331 335.095 154.331 335.095L142.562 344.267C142.562 344.267 143.491 345.434 144.396 346.601C144.849 347.197 145.325 347.769 145.707 348.174C146.064 348.603 146.326 348.865 146.326 348.865L152.02 344.028L153.854 346.149L146.016 353.081C146.016 353.081 145.516 352.51 144.778 351.652C144.039 350.771 142.991 349.675 142.085 348.46C140.203 346.077 138.345 343.695 138.345 343.695L155.093 331.188C155.093 331.188 155.808 332.093 156.856 333.427C157.904 334.785 159.31 336.572 160.835 338.263C161.573 339.121 162.336 339.978 163.026 340.788C163.765 341.551 164.456 342.289 165.051 342.909C166.219 344.148 167.005 344.981 167.005 344.981C167.005 344.981 168.172 346.101 169.959 347.793C170.817 348.65 171.889 349.603 173.056 350.604C174.223 351.581 175.415 352.7 176.701 353.701C177.988 354.701 179.25 355.702 180.465 356.655C181.704 357.536 182.871 358.37 183.848 359.085C185.802 360.538 187.207 361.372 187.207 361.372L172.484 383.861C172.484 383.861 173.818 384.719 175.82 385.982C177.821 387.244 180.584 388.769 183.324 390.365C186.135 391.795 188.923 393.296 191.091 394.272C193.258 395.249 194.688 395.892 194.688 395.892L204.289 374.022C204.289 374.022 203.526 373.689 202.383 373.165C201.239 372.664 199.715 371.973 198.261 371.187C196.784 370.425 195.283 369.686 194.188 369.091C193.116 368.471 192.377 368.043 192.377 368.043L184.992 381.026C184.992 381.026 186.278 381.765 187.565 382.503C188.899 383.171 190.209 383.861 190.209 383.861L193.64 377.215L196.141 378.501L191.543 387.888L186.135 385.124L180.87 382.098L191.591 364.159C191.591 364.159 192.568 364.731 194.068 365.565C195.522 366.446 197.547 367.495 199.596 368.519C201.597 369.615 203.717 370.473 205.266 371.187C206.814 371.926 207.862 372.331 207.862 372.331C207.862 372.331 209.363 372.926 211.65 373.832C212.77 374.308 214.128 374.713 215.581 375.213C217.034 375.69 218.559 376.262 220.131 376.667C221.704 377.119 223.252 377.548 224.729 377.977C226.206 378.311 227.612 378.644 228.779 378.906C229.971 379.192 230.947 379.406 231.662 379.526C232.353 379.645 232.758 379.716 232.758 379.716L227.826 406.136C227.826 406.136 229.375 406.422 231.71 406.827C234.044 407.232 237.189 407.566 240.31 407.971C243.455 408.209 246.599 408.495 248.958 408.59C251.316 408.662 252.889 408.686 252.889 408.686L253.365 384.791C253.365 384.791 252.531 384.791 251.293 384.743C250.03 384.743 248.386 384.648 246.718 384.481C245.051 384.338 243.383 384.266 242.144 384.1C240.906 383.933 240.072 383.838 240.072 383.838L238.237 398.656C238.237 398.656 239.714 398.846 241.191 399.037C242.668 399.156 244.146 399.275 244.146 399.275L244.765 391.842L247.576 392.057L246.933 402.491C246.933 402.491 243.907 402.253 240.882 402.015C237.88 401.634 234.854 401.253 234.854 401.253L237.832 380.574C237.832 380.574 238.952 380.717 240.667 380.931C242.359 381.193 244.622 381.384 246.909 381.527C249.172 381.741 251.459 381.789 253.175 381.813C254.89 381.86 256.033 381.884 256.033 381.884C256.033 381.884 257.653 381.836 260.107 381.765C262.561 381.765 265.801 381.431 269.041 381.217C275.521 380.502 281.882 379.216 281.882 379.216L287.361 405.517C287.361 405.517 288.91 405.16 291.221 404.636C293.532 404.159 296.581 403.278 299.607 402.42C302.656 401.586 305.61 400.443 307.873 399.728C310.113 398.918 311.566 398.322 311.566 398.322L302.871 376.071C302.871 376.071 302.108 376.381 300.941 376.833C299.773 377.286 298.177 377.786 296.605 378.334C295.033 378.906 293.436 379.383 292.245 379.692C291.054 380.026 290.244 380.264 290.244 380.264L294.199 394.653C294.199 394.653 295.628 394.248 297.058 393.843C298.487 393.462 299.893 392.986 299.893 392.986L297.606 385.886L300.274 384.981L303.657 394.868C303.657 394.868 302.942 395.106 301.87 395.487C300.798 395.868 299.368 396.345 297.891 396.726C296.438 397.131 294.961 397.56 293.865 397.87C292.769 398.203 292.031 398.346 292.031 398.346L286.909 378.072C286.909 378.072 287.195 378.025 287.671 377.882C288.148 377.739 288.838 377.548 289.648 377.31C291.292 376.833 293.484 376.262 295.628 375.499C297.796 374.785 299.94 374.046 301.513 373.379C303.109 372.76 304.157 372.331 304.157 372.331C304.157 372.331 304.538 372.188 305.181 371.902C305.825 371.616 306.754 371.187 307.873 370.687C310.137 369.734 312.996 368.209 315.902 366.732C318.713 365.112 321.572 363.54 323.597 362.158C324.621 361.491 325.479 360.943 326.075 360.562C326.67 360.181 327.004 359.919 327.004 359.919L342.179 382.098C342.179 382.098 343.466 381.193 345.396 379.811C347.349 378.477 349.803 376.476 352.281 374.546C354.734 372.569 357.093 370.449 358.88 368.9C360.595 367.256 361.738 366.184 361.738 366.184L345.205 348.936L343.704 350.366C342.823 351.247 341.536 352.319 340.297 353.415C339.035 354.511 337.796 355.607 336.795 356.369C335.818 357.131 335.151 357.656 335.151 357.656L344.323 369.424C344.323 369.424 345.491 368.495 346.658 367.59C347.254 367.137 347.826 366.661 348.231 366.28C348.659 365.922 348.921 365.66 348.921 365.66L344.085 359.966L346.206 358.132L353.138 365.97C353.138 365.97 352.566 366.47 351.709 367.209C350.827 367.947 349.731 368.996 348.516 369.901C346.134 371.783 343.752 373.641 343.752 373.641L331.244 356.893C331.244 356.893 332.15 356.178 333.484 355.13C334.842 354.082 336.628 352.676 338.32 351.152C339.178 350.413 340.035 349.651 340.845 348.96C341.608 348.221 342.346 347.531 342.966 346.935C344.204 345.768 345.038 344.981 345.038 344.981C345.038 344.981 346.158 343.814 347.849 342.027C348.707 341.17 349.66 340.098 350.661 338.93C351.637 337.763 352.757 336.572 353.758 335.285C354.758 333.999 355.759 332.736 356.712 331.521C357.593 330.282 358.427 329.115 359.142 328.138C360.595 326.185 361.429 324.779 361.429 324.779L383.918 339.502C383.918 339.502 384.776 338.168 386.038 336.167C387.301 334.166 388.826 331.402 390.422 328.662C391.851 325.851 393.352 323.064 394.329 320.896C395.306 318.728 395.949 317.298 395.949 317.298L374.079 307.698C374.079 307.698 373.746 308.46 373.221 309.603C372.721 310.747 372.03 312.272 371.244 313.725C370.482 315.202 369.743 316.703 369.148 317.799C368.528 318.871 368.099 319.609 368.099 319.609L381.083 326.995C381.083 326.995 381.822 325.708 382.56 324.422C383.227 323.088 383.918 321.777 383.918 321.777L377.271 318.347L378.558 315.845L387.944 320.443C387.944 320.443 386.563 323.135 385.181 325.851L382.155 331.116L364.216 320.396C364.216 320.396 364.788 319.419 365.622 317.918C366.503 316.465 367.551 314.416 368.576 312.391C369.672 310.39 370.529 308.269 371.244 306.721C371.983 305.172 372.388 304.124 372.388 304.124C372.388 304.124 372.983 302.623 373.888 300.336C374.365 299.216 374.77 297.858 375.27 296.405C375.747 294.952 376.318 293.427 376.723 291.855C377.176 290.283 377.605 288.734 378.034 287.257C378.367 285.78 378.701 284.374 378.963 283.207C379.249 282.016 379.463 281.039 379.582 280.324C379.701 279.633 379.773 279.228 379.773 279.228L406.193 284.16C406.193 284.16 406.479 282.611 406.884 280.277C407.289 277.942 407.623 274.797 408.028 271.676C408.266 268.532 408.552 265.387 408.647 263.028C408.718 260.67 408.742 259.098 408.742 259.098L384.847 258.621C384.847 258.621 384.847 259.455 384.8 260.694C384.8 261.956 384.704 263.6 384.538 265.268C384.395 266.936 384.323 268.603 384.156 269.842C383.99 271.081 383.894 271.915 383.894 271.915L398.713 273.749L399.094 270.795C399.213 269.318 399.332 267.841 399.332 267.841L391.899 267.221L392.113 264.41L402.548 265.053C402.548 265.053 402.31 268.079 402.072 271.105C401.691 274.106 401.309 277.132 401.309 277.132L380.631 274.154C380.631 274.154 380.773 273.034 380.988 271.319C381.25 269.628 381.441 267.364 381.583 265.077C381.798 262.814 381.846 260.527 381.869 258.812C381.917 257.096 381.941 255.953 381.941 255.953C381.941 255.953 381.893 254.333 381.822 251.879C381.822 249.425 381.488 246.185 381.274 242.945L381.25 242.969ZM255.986 376.929C189.304 376.929 135.034 322.683 135.034 255.977C135.034 189.271 189.304 135.025 255.986 135.025C322.668 135.025 376.938 189.271 376.938 255.977C376.938 322.683 322.692 376.929 255.986 376.929Z" fill="#F8F1E4"/>
<path d="M188.886 278.023C187.831 278.084 186.754 278.104 185.719 278.104C167.814 278.104 154.843 271.365 148.204 258.575C147.676 257.764 146.58 255.896 145.606 252.932C145.565 254.028 145.545 255.125 145.545 256.22C145.545 281.799 154.274 305.347 168.951 324.044C167.895 320.857 167.652 318.522 167.591 317.507C164.952 300.049 175.142 287.219 188.886 278.023Z" fill="#F8F1E4"/>
<path d="M293.307 359.857C289.998 359.857 287.745 359.349 286.77 359.085C269.312 356.162 260.279 342.439 255.792 326.463C251.306 342.459 242.252 356.162 224.815 359.085C223.819 359.349 221.587 359.857 218.258 359.857H218.115C229.889 364.16 242.556 366.495 255.792 366.495C269.028 366.495 281.696 364.14 293.47 359.857H293.307Z" fill="#F8F1E4"/>
<path d="M325.705 278.109C324.711 278.109 323.716 278.109 322.701 278.028C336.444 287.224 346.635 300.054 343.996 317.512C343.935 318.527 343.711 320.841 342.636 324.049C357.313 305.332 366.042 281.783 366.042 256.226C366.042 254.947 366.042 253.688 365.96 252.409C364.925 255.678 363.748 257.748 363.18 258.601C356.541 271.37 343.59 278.13 325.685 278.13L325.705 278.109Z" fill="#F8F1E4"/>
<path d="M261.95 281.805C261.747 285.134 261.605 288.911 261.605 292.971C261.605 315.321 265.889 345.731 288.645 349.365L289.457 349.568C289.457 349.568 290.858 349.974 293.294 349.974C298.369 349.974 306.611 348.37 317.126 340.717C333.691 328.679 334.098 317.514 334.098 317.047L334.179 316.296C337.853 292.991 308.824 279.41 287.407 272.67C284.098 271.615 280.992 270.742 278.191 270.011C274.537 275.939 268.67 280.202 261.93 281.826L261.95 281.805Z" fill="#F8F1E4"/>
<path d="M233.399 269.987C229.684 270.962 225.36 272.18 220.833 273.723C199.843 280.807 173.899 294.145 177.39 316.272L177.471 316.678V317.084C177.471 317.49 177.878 328.655 194.443 340.693C204.958 348.346 213.2 349.949 218.254 349.949C220.772 349.949 222.172 349.544 222.193 349.524L222.923 349.361C245.701 345.727 249.964 315.338 249.964 292.967C249.964 288.907 249.821 285.111 249.618 281.802C242.879 280.178 237.012 275.895 233.358 269.987H233.399Z" fill="#F8F1E4"/>
<path d="M246.917 242.541L245.943 243.171L245.172 243.841C241.517 246.987 239.406 251.514 239.406 256.285C239.406 257.523 239.589 258.842 239.914 260.182L240.219 261.461L240.604 262.395C242.938 268.16 248.46 272.18 254.652 272.606L255.809 272.687L256.966 272.606C263.178 272.18 268.679 268.16 271.014 262.395L271.42 261.421L271.704 260.223C272.049 258.842 272.211 257.543 272.211 256.264C272.211 251.433 270.1 246.865 266.385 243.739L265.634 243.11L264.741 242.521C259.423 239.05 252.277 239.05 246.958 242.521L246.917 242.541ZM271.074 256.224C271.074 264.628 264.213 271.469 255.809 271.469C255.464 271.469 255.139 271.469 254.814 271.429H254.712C246.816 270.86 240.543 264.263 240.543 256.224C240.543 248.185 247.404 240.958 255.809 240.958H255.89C256.519 240.958 258.448 240.958 260.742 241.77C265.857 243.638 271.054 249.2 271.054 256.224H271.074Z" fill="#F8F1E4"/>
<path d="M260.646 255.165C259.753 255.896 258.129 256.728 256.343 256.911C255.896 256.951 255.592 256.971 255.328 256.992C254.902 257.033 254.638 257.033 254.089 257.154C253.704 257.236 251.734 257.763 250.395 259.468C248.953 261.316 248.629 263.975 249.603 266.107C250.659 268.502 251.938 270.045 254.881 270.329C255.206 270.329 255.51 270.37 255.835 270.37C263.631 270.37 269.984 264.016 269.984 256.22C269.984 250.699 266.493 246.151 262.534 243.817C263.61 245.482 263.753 247.045 263.753 247.228C263.813 247.796 264.118 252.384 260.666 255.165H260.646Z" fill="#F8F1E4"/>
<path d="M229.518 256.283C229.518 250.051 231.731 244.103 235.69 239.393C233.923 236.632 231.772 233.425 229.295 230.055C218.658 215.439 202.174 197.575 185.223 197.575C181.427 197.575 177.834 198.468 174.261 200.275L173.49 200.599C173.124 200.721 162.629 204.578 156.316 224.046C149.982 243.514 156.214 252.791 156.478 253.177L156.884 253.827C161.837 263.51 171.257 268.219 185.71 268.219C193.526 268.219 201.788 266.798 209.462 264.829C214.252 263.611 218.8 262.17 222.86 260.77C225.316 259.896 227.569 259.064 229.6 258.252C229.539 257.582 229.518 256.932 229.518 256.283Z" fill="#F8F1E4"/>
<path d="M282.064 256.283C282.064 256.953 282.064 257.643 281.983 258.313C284.013 259.104 286.266 259.957 288.702 260.79C299.238 264.464 313.083 268.199 325.709 268.199C340.183 268.199 349.603 263.489 354.536 253.806L354.962 253.096C355.206 252.771 361.417 243.494 355.084 224.026C348.77 204.558 338.275 200.721 337.828 200.559L337.118 200.275C333.586 198.468 329.891 197.575 326.156 197.575C309.226 197.575 292.783 215.358 282.145 229.974C279.709 233.323 277.557 236.531 275.791 239.292C279.79 244.022 282.044 250.01 282.044 256.303L282.064 256.283Z" fill="#F8F1E4"/>
<path d="M291.147 155.412C303.367 167.836 302.819 183.913 297.318 199.261C306.108 192.399 315.893 187.689 326.185 187.689C331.402 187.689 336.497 188.908 341.369 191.343C342.324 191.729 344.536 192.704 347.297 194.754C332.62 172.972 310.391 156.671 284.387 149.688C288.243 152.103 290.334 154.438 291.126 155.392L291.147 155.412Z" fill="#F8F1E4"/>
<path d="M255.81 229.995C259.403 229.995 262.895 230.726 266.163 232.147C268.335 229.488 270.731 226.402 273.187 222.991C286.118 204.985 300.065 178.25 283.966 162.172L283.419 161.543C283.175 161.238 276.273 152.428 255.81 152.428C235.347 152.428 228.283 161.441 228.202 161.543L227.654 162.172C211.556 178.27 225.461 204.965 238.413 222.971C240.869 226.381 243.285 229.508 245.457 232.147C248.705 230.746 252.217 229.995 255.81 229.995Z" fill="#F8F1E4"/>
<path d="M185.239 187.688C195.654 187.688 205.499 192.479 214.35 199.442C208.788 184.034 208.199 167.855 220.46 155.411C221.232 154.457 223.323 152.123 227.2 149.707C201.297 156.67 179.149 172.849 164.473 194.489C167.071 192.622 169.121 191.708 170.055 191.342C174.927 188.906 180.043 187.688 185.239 187.688Z" fill="#F8F1E4"/>
</g>
</svg>
